<svg width="1599" height="1224" viewBox="0 0 1599 1224" fill="none" xmlns="http://www.w3.org/2000/svg">
<g filter="url(#filter0_f_104_307)">
<circle cx="455.422" cy="768.578" r="129.422" fill="#7FCE84" fill-opacity="0.83"/>
</g>
<g filter="url(#filter1_f_104_307)">
<circle cx="1013.11" cy="585.557" r="259.557" fill="#36853B" fill-opacity="0.52"/>
</g>
<g filter="url(#filter2_f_104_307)">
<circle cx="692.461" cy="702.375" r="121.697" fill="#3D9542"/>
</g>
<g clip-path="url(#clip0_104_307)">
<g opacity="0.3">
<path d="M1006.88 567.359H1105.63V640.934H1006.88V567.359ZM897.908 310.934H996.659V383.478H898.41V392.956H996.659V470.681H898.41V480.156H996.659V557.882H898.41V567.359H996.659V640.934H897.908V310.934ZM1006.88 392.956H1105.63V470.681H1006.88V392.956ZM1006.88 480.156H1105.63V557.88H1006.88V480.156ZM1105.63 383.478H1006.88V310.934H1105.63V383.478ZM889.752 653.891H1113.79V297.977H889.752V653.891Z" stroke="black" stroke-width="1.484" stroke-miterlimit="10" stroke-linecap="round" stroke-linejoin="round"/>
<path d="M982.506 332.626L932.685 373.857" stroke="black" stroke-width="1.484" stroke-miterlimit="10" stroke-linecap="round" stroke-linejoin="round"/>
<path d="M1081.29 413.371L1031.47 454.602" stroke="black" stroke-width="1.484" stroke-miterlimit="10" stroke-linecap="round" stroke-linejoin="round"/>
<path d="M968.761 587.748L918.94 628.979" stroke="black" stroke-width="1.484" stroke-miterlimit="10" stroke-linecap="round" stroke-linejoin="round"/>
<path d="M956.378 344.651L933.542 363.549" stroke="black" stroke-width="1.484" stroke-miterlimit="10" stroke-linecap="round" stroke-linejoin="round"/>
<path d="M1077.5 403.923L1054.66 422.82" stroke="black" stroke-width="1.484" stroke-miterlimit="10" stroke-linecap="round" stroke-linejoin="round"/>
<path d="M965.827 600.633L942.992 619.53" stroke="black" stroke-width="1.484" stroke-miterlimit="10" stroke-linecap="round" stroke-linejoin="round"/>
<path d="M958.954 509.58L936.12 528.478" stroke="black" stroke-width="1.484" stroke-miterlimit="10" stroke-linecap="round" stroke-linejoin="round"/>
<path d="M1075.78 589.465L1052.94 608.363" stroke="black" stroke-width="1.484" stroke-miterlimit="10" stroke-linecap="round" stroke-linejoin="round"/>
<path d="M876.85 653.656H1127.68V684.815H876.85V653.656Z" stroke="black" stroke-width="1.484" stroke-miterlimit="10" stroke-linecap="round" stroke-linejoin="round"/>
</g>
<path d="M1002.87 538.478C994.391 559.685 966.052 569.005 939.576 559.296C913.099 549.585 898.509 524.519 906.991 503.312C915.47 482.103 943.809 472.783 970.286 482.493C996.763 492.204 1011.35 517.269 1002.87 538.478Z" fill="#21A038"/>
<path d="M906.989 503.312C915.469 482.103 943.808 472.783 970.285 482.493C996.763 492.204 1011.35 517.269 1002.87 538.478C994.392 559.686 966.053 569.007 939.576 559.296C913.098 549.585 898.509 524.52 906.989 503.312Z" stroke="#111311" stroke-width="1.44526" stroke-miterlimit="10" stroke-linecap="round" stroke-linejoin="round"/>
<path d="M923.154 535.322C923.154 535.322 912.513 537.108 908.686 530.787C904.858 524.466 914.225 508.279 922.992 501.372C931.757 494.462 953.856 493.441 964.844 495.873C975.83 498.306 987.85 508.476 988.409 517.879C988.97 527.286 983.985 535.838 983.342 538.719C982.699 541.598 976.19 540.885 975.466 539.332C974.74 537.776 963.802 514.938 961.15 513.665C958.498 512.391 956.363 514.123 953.102 515.488C949.841 516.852 925.389 524.501 925.389 524.501L923.154 535.322Z" fill="#111311" stroke="#111311" stroke-width="1.44526" stroke-miterlimit="10" stroke-linecap="round" stroke-linejoin="round"/>
<path d="M927.799 774.335L927.564 743.508L912.354 779.231L912.354 779.234C909.296 783.393 905.608 788.794 903.669 793.093C899.994 801.248 909.023 829.289 910.249 826.572C911.473 823.853 921.218 788.286 921.218 788.286C921.218 788.286 922.957 782.186 923.238 777.279L927.799 774.335Z" fill="#9D9D9D" stroke="#111311" stroke-width="1.44526" stroke-miterlimit="10" stroke-linecap="round" stroke-linejoin="round"/>
<path d="M921.917 795.143C921.917 795.143 911.984 797.457 909.023 818.317C908.215 824.005 907.538 884.605 906.119 894.6L900.234 936.057L952.488 941.752L964.525 903.09L963.895 942.146L1016.3 947.858C1016.3 947.858 1030.16 887.708 1031.64 880.214C1033.11 872.719 1039.06 856.782 1041.06 834.037C1043.06 811.29 1039.47 801.969 1039.47 801.969L924.218 787.282L921.917 795.143Z" fill="#111311" stroke="#111311" stroke-width="1.44526" stroke-miterlimit="10" stroke-linecap="round" stroke-linejoin="round"/>
<path d="M958.059 589.168C958.059 589.168 930.571 608.179 924.438 613.541C918.078 619.101 915.567 653.309 919.28 677.477C922.991 701.645 925.326 738.636 924.643 745.987C923.963 753.337 918.918 797.184 918.918 797.184C918.918 797.184 959.975 819.874 987.257 818.409C1014.54 816.941 1035.14 807.317 1035.14 807.317C1035.14 807.317 1041.52 731.906 1043.84 715.453C1046.16 699.001 1050.35 644.14 1049.52 624.744C1048.7 605.348 1038.02 592.67 1029.06 590.572C1020.09 588.477 986.193 583.145 986.193 583.145L958.059 589.168Z" fill="#9D9D9D" stroke="#111311" stroke-width="1.44526" stroke-miterlimit="10" stroke-linecap="round" stroke-linejoin="round"/>
<path d="M943.499 583.386C943.499 583.386 949.972 616.828 951.764 617.349C953.558 617.869 959.179 613.299 959.179 613.299L983.242 583.85L979.566 553.842C979.566 553.842 972.93 568.785 962.956 577.739C952.985 586.693 943.499 583.386 943.499 583.386Z" fill="#9D9D9D" stroke="#111311" stroke-width="1.44526" stroke-miterlimit="10" stroke-linecap="round" stroke-linejoin="round"/>
<path d="M965.631 579.131L947.718 600.994L943.242 583.123L965.631 579.131Z" fill="#111311" stroke="#111311" stroke-width="1.44526" stroke-miterlimit="10" stroke-linecap="round" stroke-linejoin="round"/>
<path d="M962.304 504.485C962.304 504.485 948.187 513.607 937.546 516.323C926.901 519.038 921.647 519.919 921.647 519.919C921.647 519.919 921.849 541.507 921.921 547.573C921.994 553.639 922.638 563.886 926.161 568.631C929.686 573.377 938.332 584.74 942.551 587.866C946.771 590.991 954.881 589.696 957.346 588.753C959.812 587.81 976.106 568.264 977.201 565.475C978.296 562.687 978.597 553.998 978.597 553.998C978.597 553.998 985.039 551.307 986.43 548.067C987.823 544.827 987.516 532.193 985.918 530.322C984.317 528.452 981.061 530.035 980.331 531.894C979.601 533.753 977.818 536.466 977.818 536.466C977.818 536.466 978.299 531.43 976.902 528.128C975.506 524.825 975.676 523.631 971.82 519.577C967.965 515.522 962.304 504.485 962.304 504.485Z" fill="#9D9D9D" stroke="#111311" stroke-width="1.44526" stroke-miterlimit="10" stroke-linecap="round" stroke-linejoin="round"/>
<path d="M940.193 549.543L939.967 556.161C939.967 556.161 947.674 556.759 951.709 553.266" stroke="#111311" stroke-width="1.44526" stroke-miterlimit="10" stroke-linecap="round" stroke-linejoin="round"/>
<path d="M934.938 562.389C934.938 562.389 940.26 564.958 949.263 563.226C958.266 561.495 961.254 555.384 961.254 555.384" stroke="#111311" stroke-width="1.44526" stroke-miterlimit="10" stroke-linecap="round" stroke-linejoin="round"/>
<path d="M936.845 533.155C936.845 533.155 927.15 528.578 923.322 534.329" stroke="#111311" stroke-width="1.44526" stroke-miterlimit="10" stroke-linecap="round" stroke-linejoin="round"/>
<path d="M947.676 530.668C947.676 530.668 955.298 524.594 962.06 528.224" stroke="#111311" stroke-width="1.44526" stroke-miterlimit="10" stroke-linecap="round" stroke-linejoin="round"/>
<path d="M934.65 542.07C935.104 543.99 934.706 545.721 933.762 545.932C932.82 546.142 931.685 544.755 931.232 542.833C930.781 540.91 931.175 539.18 932.119 538.969C933.064 538.76 934.196 540.146 934.65 542.07Z" fill="#111311"/>
<path d="M957.366 538.068C957.82 539.991 957.422 541.72 956.477 541.931C955.535 542.141 954.402 540.755 953.947 538.832C953.495 536.909 953.891 535.178 954.836 534.969C955.78 534.758 956.911 536.145 957.366 538.068Z" fill="#111311"/>
<path d="M1002.78 629.311L1012.14 705.613C1012.14 705.613 1010.61 709.129 1011 711.386C1011.38 713.643 1011.48 715.496 1011.48 715.496C1011.48 715.496 1001.99 743.939 994.746 761.198C987.496 778.457 965.002 815.393 965.088 819.829C965.176 824.266 956.564 856.494 958.423 858.178C960.282 859.862 964.784 862.583 966.157 862.737C967.527 862.892 973.604 864.313 975.661 864.545C977.719 864.776 985.316 865.262 987.088 862.51C988.858 859.759 988.766 857.904 986.607 858.4C984.45 858.895 980.969 858.872 980.969 858.872L979.997 855.811C979.997 855.811 983.46 843.291 983.044 833.653C982.626 824.015 982.389 820.67 982.389 820.67C982.389 820.67 1035.41 751.757 1039.02 738.146C1042.63 724.536 1047.47 709.589 1048.42 702.687C1049.37 695.786 1051.05 632.898 1049.94 625.766C1048.83 618.633 1048.75 611.615 1044.06 605.186C1039.37 598.757 1035.6 598.332 1032.85 598.023" fill="#9D9D9D"/>
<path d="M1002.78 629.311L1012.14 705.613C1012.14 705.613 1010.61 709.129 1011 711.386C1011.38 713.643 1011.48 715.496 1011.48 715.496C1011.48 715.496 1001.99 743.939 994.746 761.198C987.496 778.457 965.002 815.393 965.088 819.829C965.176 824.266 956.564 856.494 958.423 858.178C960.282 859.862 964.784 862.583 966.157 862.737C967.527 862.892 973.604 864.313 975.661 864.545C977.719 864.776 985.316 865.262 987.088 862.51C988.858 859.759 988.766 857.904 986.607 858.4C984.45 858.895 980.969 858.872 980.969 858.872L979.997 855.811C979.997 855.811 983.46 843.291 983.044 833.653C982.626 824.015 982.389 820.67 982.389 820.67C982.389 820.67 1035.41 751.757 1039.02 738.146C1042.63 724.536 1047.47 709.589 1048.42 702.687C1049.37 695.786 1051.05 632.898 1049.94 625.766C1048.83 618.633 1048.75 611.615 1044.06 605.186C1039.37 598.757 1035.6 598.332 1032.85 598.023" stroke="#111311" stroke-width="1.44526" stroke-miterlimit="10" stroke-linecap="round" stroke-linejoin="round"/>
<path d="M1014.37 714.099C1014.37 714.099 1025.59 710.58 1034.08 715.956" stroke="#111311" stroke-width="1.44526" stroke-miterlimit="10" stroke-linecap="round" stroke-linejoin="round"/>
<path d="M1022.22 707.009C1022.22 707.009 1034.91 705.181 1041.26 715.509" stroke="#111311" stroke-width="1.44526" stroke-miterlimit="10" stroke-linecap="round" stroke-linejoin="round"/>
<path d="M1000.62 747.716C998.878 752.249 997.119 756.663 995.474 760.522C988.088 777.851 965.182 814.95 965.265 819.402C965.349 823.856 956.56 856.214 958.446 857.904C960.334 859.593 964.905 862.318 966.301 862.472C967.696 862.625 973.867 864.046 975.959 864.277C978.05 864.507 985.769 864.988 987.573 862.225C989.377 859.461 989.284 857.598 987.089 858.098C984.898 858.597 981.359 858.577 981.359 858.577L980.375 855.507C980.375 855.507 983.908 842.936 983.497 833.262C983.085 823.589 982.849 820.23 982.849 820.23C982.849 820.23 1008.77 786.969 1025.91 762.006C1018.56 751.596 1007.87 748.517 1000.62 747.716Z" fill="#9D9D9D" stroke="#111311" stroke-width="1.44526" stroke-miterlimit="10" stroke-linecap="round" stroke-linejoin="round"/>
<path d="M973.5 856.41C973.5 856.41 976.591 859.902 977.673 861.024C978.756 862.145 979.024 863.178 981.293 863.712" fill="#9D9D9D"/>
<path d="M973.5 856.41C973.5 856.41 976.591 859.902 977.673 861.024C978.756 862.145 979.024 863.178 981.293 863.712" stroke="#111311" stroke-width="1.44526" stroke-miterlimit="10" stroke-linecap="round" stroke-linejoin="round"/>
<path d="M966.127 857.33C966.127 857.33 970.97 862.022 974.202 863.22Z" fill="#9D9D9D"/>
<path d="M966.127 857.33C966.127 857.33 970.97 862.022 974.202 863.22" stroke="#111311" stroke-width="1.44526" stroke-miterlimit="10" stroke-linecap="round" stroke-linejoin="round"/>
<path d="M960.293 855.765C960.293 855.765 962.352 859.389 964.962 860.965Z" fill="#9D9D9D"/>
<path d="M960.293 855.765C960.293 855.765 962.352 859.389 964.962 860.965" stroke="#111311" stroke-width="1.44526" stroke-miterlimit="10" stroke-linecap="round" stroke-linejoin="round"/>
<path d="M920.452 786.078C920.452 786.078 920.348 795.994 920.63 797.634C920.912 799.275 919.754 802.098 919.409 808.23C919.066 814.362 919.691 820.869 916.068 819.394C912.442 817.917 912.118 807.42 912.738 804.804C913.357 802.191 909.935 793.762 909.935 793.762" fill="#9D9D9D"/>
<path d="M920.452 786.078C920.452 786.078 920.348 795.994 920.63 797.634C920.912 799.275 919.754 802.098 919.409 808.23C919.066 814.362 919.691 820.869 916.068 819.394C912.442 817.917 912.118 807.42 912.738 804.804C913.357 802.191 909.935 793.762 909.935 793.762" stroke="#111311" stroke-width="1.44526" stroke-miterlimit="10" stroke-linecap="round" stroke-linejoin="round"/>
<path d="M853.488 735.682C850.641 727.729 835.258 620.708 835.258 620.708C828.139 635.386 815.688 709.944 815.688 709.944L813.941 749.952L812.489 757.343C820.45 752.778 839.653 744.088 849.896 759.099C850.174 758.387 850.385 757.784 850.52 757.305C853.276 747.446 856.336 743.635 853.488 735.682Z" fill="#21A038"/>
<path d="M853.488 735.682C850.641 727.729 835.258 620.708 835.258 620.708C828.139 635.386 815.688 709.944 815.688 709.944L813.941 749.952L812.489 757.343C820.45 752.778 839.653 744.088 849.896 759.099C850.174 758.387 850.385 757.784 850.52 757.305C853.276 747.446 856.336 743.635 853.488 735.682Z" stroke="#111311" stroke-width="1.54913" stroke-miterlimit="10" stroke-linecap="round" stroke-linejoin="round"/>
<path d="M844.434 744.767C846.39 745.302 848.261 746.045 849.971 747.051" stroke="#111311" stroke-width="1.54913" stroke-miterlimit="10" stroke-linecap="round" stroke-linejoin="round"/>
<path d="M816.582 745.446C816.582 745.446 826.838 742.586 837.324 743.545" stroke="#111311" stroke-width="1.54913" stroke-miterlimit="10" stroke-linecap="round" stroke-linejoin="round"/>
<path d="M848.643 741.009C848.643 741.009 840.703 734.664 833.479 736.266" stroke="#111311" stroke-width="1.54913" stroke-miterlimit="10" stroke-linecap="round" stroke-linejoin="round"/>
<path d="M651.274 933.516L663.082 853.039L674.114 809.309L803.59 816.849L811.148 849.649L805.964 949.085L740.714 942.965L736.508 876.387L732.198 882.353L723.678 939.951L651.274 933.516Z" fill="#111311" stroke="#111311" stroke-width="1.54913" stroke-miterlimit="10" stroke-linecap="round" stroke-linejoin="round"/>
<path d="M731.781 593.665C731.781 593.665 674.235 603.716 670.629 605.135C667.021 606.552 668.01 659.705 670.893 679.303C673.777 698.902 677.852 770.266 677.852 770.266L670.719 820.898C670.719 820.898 725.138 827.421 747.33 826.696C769.521 825.972 794.236 821.97 794.236 821.97C794.236 821.97 807.538 777.891 808.536 748.116C809.532 718.34 826.36 645.779 827.075 640.925C827.792 636.074 833.468 618.334 833.468 618.334C833.468 618.334 793.522 601.226 783.003 598.832C772.484 596.437 747.453 593.381 731.781 593.665Z" fill="#21A038" stroke="#111311" stroke-width="1.54913" stroke-miterlimit="10" stroke-linecap="round" stroke-linejoin="round"/>
<path d="M717.1 606.275C717.1 606.275 722.232 626.552 737.647 640.146" stroke="#111311" stroke-width="1.54913" stroke-miterlimit="10" stroke-linecap="round" stroke-linejoin="round"/>
<path d="M776.354 609.15C776.354 609.15 772.473 616.387 766.675 624.089" stroke="#111311" stroke-width="1.54913" stroke-miterlimit="10" stroke-linecap="round" stroke-linejoin="round"/>
<path d="M765.183 628.07L761.799 631.856" stroke="#111311" stroke-width="1.54913" stroke-miterlimit="10" stroke-linecap="round" stroke-linejoin="round"/>
<path d="M723.85 818.636C737.184 819.31 761.702 819.846 778.072 816.001" stroke="#111311" stroke-width="1.54913" stroke-miterlimit="10" stroke-linecap="round" stroke-linejoin="round"/>
<path d="M714.384 818.073C714.384 818.073 715.895 818.202 718.502 818.364" stroke="#111311" stroke-width="1.54913" stroke-miterlimit="10" stroke-linecap="round" stroke-linejoin="round"/>
<path d="M770.528 809.007C752.869 809.671 726.269 809.17 706.277 802.182" stroke="#111311" stroke-width="1.54913" stroke-miterlimit="10" stroke-linecap="round" stroke-linejoin="round"/>
<path d="M789.341 808.273C789.341 808.273 784.85 808.711 777.676 809.007" stroke="#111311" stroke-width="1.54913" stroke-miterlimit="10" stroke-linecap="round" stroke-linejoin="round"/>
<path d="M790.463 783.986C779.319 789.018 758.162 797.281 737.828 798.106" stroke="#111311" stroke-width="1.54913" stroke-miterlimit="10" stroke-linecap="round" stroke-linejoin="round"/>
<path d="M798.505 780.198C798.505 780.198 796.982 780.998 794.289 782.26" stroke="#111311" stroke-width="1.54913" stroke-miterlimit="10" stroke-linecap="round" stroke-linejoin="round"/>
<path d="M724.174 574.18L723.047 602.383C723.047 602.383 728.8 623.432 748.187 623.927C767.2 624.413 773.075 599.839 773.075 599.839L772.927 569.946C772.927 569.946 754.592 582.694 745.462 580.58C736.333 578.467 724.174 574.18 724.174 574.18Z" fill="#9D9D9D" stroke="#111311" stroke-width="1.54913" stroke-miterlimit="10" stroke-linecap="round" stroke-linejoin="round"/>
<path d="M708.093 539.897C708.093 539.897 705.236 535.068 702.148 538.904C699.06 542.739 700.762 553.973 705.179 556.776C709.596 559.58 710.84 559.697 710.84 559.697C710.84 559.697 714.821 571.144 717.246 574.629C719.673 578.114 738.355 595.284 743.2 596.609C748.046 597.932 755.312 597.095 758.448 594.349C761.585 591.604 772.911 571.823 774.881 567.014C776.852 562.205 777.217 561.154 777.661 558.156C778.104 555.157 778.276 552.568 778.276 552.568C778.276 552.568 784.149 545.521 785.448 539.563C786.749 533.606 785.963 528.972 782.981 527.824C780.001 526.675 775.737 532.788 775.737 532.788L769.42 498.758C769.42 498.758 767.019 489.412 764.07 488.049C761.119 486.687 738.538 487.388 728.613 490.581C718.689 493.775 708.939 497.201 707.653 501.641C706.367 506.08 708.093 539.897 708.093 539.897Z" fill="#9D9D9D" stroke="#111311" stroke-width="1.54913" stroke-miterlimit="10" stroke-linecap="round" stroke-linejoin="round"/>
<path d="M730.063 495.5C730.063 495.5 711.748 497.503 710.334 500.415C708.92 503.326 706.789 508.877 708.085 513.396C709.382 517.916 708.661 540.51 708.661 540.51C708.661 540.51 710.533 547.79 708.74 546.607C706.949 545.425 706.568 536.932 706.07 535.871C705.573 534.81 699.54 518.007 697.843 511.758C696.147 505.511 702.157 500.324 703.647 499.111C705.136 497.897 706.726 496.017 706.726 496.017C706.726 496.017 706.541 486.19 711.383 482.246C716.227 478.304 748.235 474.54 750.968 473.782C753.702 473.022 757.126 467.594 759.585 466.471C762.045 465.349 768.336 469.321 771.304 478.056C774.27 486.79 773.602 489.096 772.061 490.642L770.523 492.19C770.523 492.19 774.948 493.28 775.949 499.803C776.95 506.323 778.645 512.57 777.906 517.576C777.165 522.58 775.252 532.157 775.105 533.158C774.956 534.16 773.969 533.105 773.494 529.677C773.017 526.251 767.897 501.076 766.999 498.286C766.102 495.496 764.882 492.675 764.383 491.614C763.885 490.553 737.239 489.068 730.063 495.5Z" fill="#111311" stroke="#111311" stroke-width="1.54913" stroke-miterlimit="10" stroke-linecap="round" stroke-linejoin="round"/>
<path d="M743.597 596.504C748.47 597.833 755.776 596.992 758.931 594.235C762.086 591.477 773.474 571.61 775.457 566.78C777.439 561.95 777.806 560.894 778.252 557.882C778.698 554.871 778.871 552.269 778.871 552.269L777.004 531.503C776.817 531.737 776.665 531.934 776.551 532.086C776.269 538.42 775.677 550.642 775.267 552.369C774.707 554.716 771.824 557.062 769.262 557.257C766.698 557.453 755.107 554.404 749.835 554.345C744.564 554.287 742.61 556.066 738.333 557.847C734.056 559.627 725.166 564.026 722.987 564.476C720.808 564.927 717.071 563.05 715.723 560.741C714.374 558.436 709.772 539.766 709.772 539.766C709.628 540.924 708.204 543.027 708.204 543.027L711.058 559.432C711.058 559.432 715.06 570.93 717.5 574.43C719.939 577.931 738.724 595.176 743.597 596.504Z" fill="#111311"/>
<path d="M743.597 596.504C748.47 597.833 755.776 596.992 758.931 594.235C762.086 591.477 773.474 571.61 775.457 566.78C777.439 561.95 777.806 560.894 778.252 557.882C778.698 554.871 778.871 552.269 778.871 552.269L777.004 531.503C776.817 531.737 776.665 531.934 776.551 532.086C776.269 538.42 775.677 550.642 775.267 552.369C774.707 554.716 771.824 557.062 769.262 557.257C766.698 557.453 755.107 554.404 749.835 554.345C744.564 554.287 742.61 556.066 738.333 557.847C734.056 559.627 725.166 564.026 722.987 564.476C720.808 564.927 717.071 563.05 715.723 560.741C714.374 558.436 709.772 539.766 709.772 539.766C709.628 540.924 708.204 543.027 708.204 543.027L711.058 559.432C711.058 559.432 715.06 570.93 717.5 574.43C719.939 577.931 738.724 595.176 743.597 596.504Z" stroke="#111311" stroke-width="1.54913" stroke-miterlimit="10" stroke-linecap="round" stroke-linejoin="round"/>
<path d="M749.65 524.342C749.65 524.342 745.655 527.998 746.122 529.333C746.59 530.671 751.947 554.814 751.378 557.329C750.811 559.843 747.198 560.753 744.523 559.615C741.849 558.478 740.974 550.667 740.974 550.667" fill="#9D9D9D"/>
<path d="M749.65 524.342C749.65 524.342 745.655 527.998 746.122 529.333C746.59 530.671 751.947 554.814 751.378 557.329C750.811 559.843 747.198 560.753 744.523 559.615C741.849 558.478 740.974 550.667 740.974 550.667" stroke="#111311" stroke-width="1.54913" stroke-miterlimit="10" stroke-linecap="round" stroke-linejoin="round"/>
<path d="M753.372 522.617C753.372 522.617 761.55 518.28 767.818 522.371" stroke="#111311" stroke-width="4.64738" stroke-miterlimit="10" stroke-linecap="round" stroke-linejoin="round"/>
<path d="M733.066 525.248C733.066 525.248 721.677 521.15 715.736 529.697" stroke="#111311" stroke-width="4.64738" stroke-miterlimit="10" stroke-linecap="round" stroke-linejoin="round"/>
<path d="M730.708 535.854C730.947 537.659 730.241 539.253 729.135 539.415C728.029 539.575 726.94 538.24 726.703 536.434C726.464 534.628 727.17 533.035 728.274 532.875C729.381 532.713 730.471 534.048 730.708 535.854Z" fill="#111311"/>
<path d="M726.665 536.436C726.389 534.635 727.08 533.043 728.207 532.879C729.335 532.716 730.471 534.044 730.747 535.845C731.022 537.646 730.331 539.238 729.204 539.402C728.077 539.565 726.94 538.237 726.665 536.436Z" stroke="#111311" stroke-width="1.54913" stroke-miterlimit="10" stroke-linecap="round" stroke-linejoin="round"/>
<path d="M759.34 531.544C759.577 533.348 758.874 534.943 757.767 535.103C756.661 535.263 755.571 533.928 755.336 532.124C755.098 530.318 755.802 528.725 756.908 528.565C758.015 528.403 759.105 529.738 759.34 531.544Z" fill="#111311"/>
<path d="M755.3 532.132C755.025 530.331 755.716 528.739 756.843 528.575C757.97 528.412 759.107 529.74 759.382 531.541C759.657 533.342 758.967 534.934 757.84 535.097C756.712 535.261 755.575 533.933 755.3 532.132Z" stroke="#111311" stroke-width="1.54913" stroke-miterlimit="10" stroke-linecap="round" stroke-linejoin="round"/>
<path d="M735.432 568.807C735.432 568.807 749.956 573.475 759.64 564.462" stroke="#111311" stroke-width="1.54913" stroke-miterlimit="10" stroke-linecap="round" stroke-linejoin="round"/>
<path d="M852.269 757.284C852.21 757.502 852.129 757.75 852.04 758.015C852.129 757.752 852.21 757.502 852.269 757.284Z" stroke="#111311" stroke-width="1.54913" stroke-miterlimit="10" stroke-linecap="round" stroke-linejoin="round"/>
<path d="M851.539 757.949C841.098 742.844 821.488 751.61 813.357 756.211L804.901 792.798L802.201 799.575C802.201 799.575 786.533 813.571 784.396 816.532C782.259 819.495 779.217 821.671 776.95 823.214C774.681 824.758 770.118 825.736 769.476 827.786C768.832 829.834 775.386 831.505 777.552 830.653C779.717 829.802 785.566 824.726 785.566 824.726L781.216 833.458L805.967 847.735C805.967 847.735 808.486 839.888 809.874 835.096C811.262 830.306 813.956 818.96 814.598 816.91C815.224 814.914 847.495 769.337 851.882 757.037C851.781 757.319 851.67 757.619 851.539 757.949Z" fill="#9D9D9D" stroke="#111311" stroke-width="1.54913" stroke-miterlimit="10" stroke-linecap="round" stroke-linejoin="round"/>
<path d="M669.006 604.228C669.006 604.228 661.407 610.155 659.12 616.589C656.833 623.022 624.216 703.166 617.417 715.12C610.62 727.074 608.491 737.022 610.771 742.139C613.052 747.254 660.229 790.634 660.229 790.634C660.229 790.634 663.373 810.532 664.326 815.522C665.277 820.513 667.053 829.079 667.053 829.079L689.096 821.02C689.096 821.02 692.422 825.886 694.774 828.21C697.127 830.532 700.293 831.883 701.261 829.876C702.228 827.866 699.104 821.621 699.104 821.621C699.104 821.621 697.719 817.289 697.893 813.806C698.066 810.322 693.997 803.637 692.459 800.341C690.924 797.046 676.326 784.111 676.326 784.111L650.24 727.683L669.297 678.1C669.297 678.1 664.941 618.192 669.006 604.228Z" fill="#9D9D9D" stroke="#111311" stroke-width="1.54913" stroke-miterlimit="10" stroke-linecap="round" stroke-linejoin="round"/>
<path d="M648.856 727.453L668.76 685.843C668.76 685.843 663.407 618.17 667.437 604.233C667.437 604.233 659.893 610.148 657.625 616.568C655.357 622.989 623.007 702.974 616.263 714.904C609.52 726.834 607.409 736.764 609.676 741.87C610.317 743.32 614.029 749.823 622.213 755.715C625.945 749.99 635.433 736.763 652.501 737.171L648.856 727.453Z" fill="#21A038" stroke="#111311" stroke-width="1.54913" stroke-miterlimit="10" stroke-linecap="round" stroke-linejoin="round"/>
<path d="M624.94 722.341C624.94 722.341 635.471 721.82 644.506 726.792" stroke="#111311" stroke-width="1.54913" stroke-miterlimit="10" stroke-linecap="round" stroke-linejoin="round"/>
<path d="M639.08 720.68C639.08 720.68 647.379 723.907 650.006 727.385" stroke="#111311" stroke-width="1.54913" stroke-miterlimit="10" stroke-linecap="round" stroke-linejoin="round"/>
<path d="M815.683 791.271C815.683 791.271 790.976 842.232 794.228 871.281C797.482 900.327 799.366 935.382 799.366 935.382L892.704 944.163C892.704 944.163 907.531 910.036 908.914 888.851C910.293 867.666 910.76 843.812 910.76 843.812L913.355 782.696L820.325 773.944L815.683 791.271Z" fill="#111311" stroke="#111311" stroke-width="1.484" stroke-miterlimit="10" stroke-linecap="round" stroke-linejoin="round"/>
<path d="M854.31 847.553C854.31 847.553 865.323 882.609 868.771 909.562C872.218 936.514 871.339 941.24 871.339 941.24" stroke="#111311" stroke-width="1.484" stroke-miterlimit="10" stroke-linecap="round" stroke-linejoin="round"/>
<path d="M867.677 877.583C867.677 877.583 885.854 864.735 892.944 848.026" stroke="#111311" stroke-width="1.484" stroke-miterlimit="10" stroke-linecap="round" stroke-linejoin="round"/>
<path d="M887.288 638.843L841.978 649.693C841.978 649.693 854.408 676.946 855.057 714.356C855.704 751.766 848.929 789.119 848.929 789.119C848.929 789.119 859.391 797.192 881.131 796.672C902.873 796.151 910.833 784.347 910.833 784.347C910.833 784.347 916.919 722.461 911.985 697.201C907.049 671.943 887.288 638.843 887.288 638.843Z" fill="#21A038" stroke="#111311" stroke-width="1.484" stroke-miterlimit="10" stroke-linecap="round" stroke-linejoin="round"/>
<path d="M832.733 523.285C832.733 523.285 822.249 521.425 816.245 533.413C810.244 545.4 792.322 587.497 793.648 597.254C794.975 607.01 800.154 610.708 801.094 621.302C802.033 631.899 796.227 637.775 796.227 637.775C796.227 637.775 799.413 643.912 808.854 645.089C818.297 646.268 833.481 639.813 843.245 638.394C853.01 636.977 874.168 636.921 887.521 636.13C900.873 635.341 904.915 625.505 904.915 625.505C904.915 625.505 895.888 625.533 896.046 619.711C896.206 613.889 906.143 592.931 904.94 577.641C903.739 562.351 884.696 545.385 876.429 537.02C868.162 528.655 860.273 521.786 850.553 520.581C840.832 519.376 834.872 519.692 832.733 523.285Z" fill="#111311" stroke="#111311" stroke-width="1.484" stroke-miterlimit="10" stroke-linecap="round" stroke-linejoin="round"/>
<path d="M820.78 576.514C820.78 576.514 810.817 590.589 810.309 603.84C809.803 617.09 819.22 618.863 821.333 617.332" stroke="#111311" stroke-width="1.484" stroke-miterlimit="10" stroke-linecap="round" stroke-linejoin="round"/>
<path d="M877.455 560.861C877.455 560.861 895.677 582.302 896.928 602.708" stroke="#111311" stroke-width="1.484" stroke-miterlimit="10" stroke-linecap="round" stroke-linejoin="round"/>
<path d="M841.905 611.897L847.972 639.364C847.972 639.364 864.675 664.876 873.594 662.336C882.512 659.794 877.244 635.339 877.365 631.972C877.487 628.605 876.882 611.962 876.882 611.962C876.882 611.962 869.811 621.127 866 620.769C862.188 620.411 841.905 611.897 841.905 611.897Z" fill="#9D9D9D" stroke="#111311" stroke-width="1.484" stroke-miterlimit="10" stroke-linecap="round" stroke-linejoin="round"/>
<path d="M842.109 541.85C842.109 541.85 823.22 569.36 822.729 573.321C822.237 577.282 830.978 602.765 833.608 607.945C836.239 613.125 857.271 625.891 862.234 626.666C867.197 627.44 872.915 622.122 874.66 617.66C876.402 613.202 882.942 601.167 883.477 594.176C883.677 591.564 878.237 561.494 875.779 559.721C873.322 557.948 842.109 541.85 842.109 541.85Z" fill="#9D9D9D" stroke="#111311" stroke-width="1.484" stroke-miterlimit="10" stroke-linecap="round" stroke-linejoin="round"/>
<path d="M846.942 583.22C846.942 583.22 841.435 580.084 837.565 584.953" stroke="#111311" stroke-width="1.484" stroke-miterlimit="10" stroke-linecap="round" stroke-linejoin="round"/>
<path d="M862.8 579.275C862.8 579.275 864.557 573.157 871.54 575.888" stroke="#111311" stroke-width="1.484" stroke-miterlimit="10" stroke-linecap="round" stroke-linejoin="round"/>
<path d="M844.259 574.752C844.259 574.752 835.173 572.964 831.811 579.129" stroke="#111311" stroke-width="1.484" stroke-miterlimit="10" stroke-linecap="round" stroke-linejoin="round"/>
<path d="M857.166 570.265C857.166 570.265 862.757 563.949 869.47 567.273" stroke="#111311" stroke-width="1.484" stroke-miterlimit="10" stroke-linecap="round" stroke-linejoin="round"/>
<path d="M863.115 592.518C863.115 592.518 859.735 596.628 855.479 594.843" stroke="#111311" stroke-width="1.484" stroke-miterlimit="10" stroke-linecap="round" stroke-linejoin="round"/>
<path d="M871.34 595.874C871.34 595.874 864.604 604.025 848.851 603.771C848.851 603.771 858.235 612.417 864.532 610.966C870.83 609.515 871.34 595.874 871.34 595.874Z" fill="#9D9D9D" stroke="#111311" stroke-width="1.484" stroke-miterlimit="10" stroke-linecap="round" stroke-linejoin="round"/>
<path d="M826.058 588.612C826.058 588.612 821.313 585.729 819.737 592.081C818.163 598.433 830.887 601.862 830.887 601.862L826.058 588.612Z" fill="#9D9D9D" stroke="#111311" stroke-width="1.484" stroke-miterlimit="10" stroke-linecap="round" stroke-linejoin="round"/>
<path d="M879.54 571.41C879.54 571.41 879.853 568.843 882.299 569.78C884.747 570.716 888.2 578.763 887.305 583.23C886.409 587.698 883.417 587.454 883.417 587.454L879.54 571.41Z" fill="#9D9D9D" stroke="#111311" stroke-width="1.484" stroke-miterlimit="10" stroke-linecap="round" stroke-linejoin="round"/>
<path d="M834.155 636.456C834.155 636.456 797.736 656.721 795.79 660.799C793.843 664.878 803.049 792.193 803.049 792.193C803.049 792.193 761.34 865.571 767.764 879.592C774.186 893.615 809.086 909.762 810.513 912.336C811.943 914.91 834.584 850.365 843.93 825.978C853.279 801.589 869.093 757.41 872.264 736.083C875.435 714.757 870.554 685.65 868.818 676.04C867.084 666.429 863.896 649.67 863.896 649.67L834.155 636.456Z" fill="#111311" stroke="#111311" stroke-width="1.484" stroke-miterlimit="10" stroke-linecap="round" stroke-linejoin="round"/>
<path d="M842.549 623.27C842.549 623.27 864.634 649.654 863.294 650.725C861.956 651.794 845.434 671.25 845.434 671.25L827.317 637.547L842.549 623.27Z" fill="#111311" stroke="#111311" stroke-width="1.484" stroke-miterlimit="10" stroke-linecap="round" stroke-linejoin="round"/>
<path d="M883.061 651.404C883.061 651.404 900.469 679.881 906.763 699.673C913.057 719.465 912.98 753.57 911.375 766.814L908.347 791.801C908.347 791.801 909.565 855.875 911.152 866.687C912.739 877.498 914.949 897.508 914.949 897.508C914.949 897.508 918.533 896.635 919.851 883.361C921.169 870.088 923.117 815.76 921.699 794C920.279 772.241 922.907 736.642 921.096 730.071L919.284 723.5L951.012 717.109C951.012 717.109 934.134 697.109 931.3 668.697C930.013 655.77 924.566 648.395 921.17 645.327C917.777 642.26 890.936 636.63 886.317 636.49C881.698 636.35 883.061 651.404 883.061 651.404Z" fill="#111311" stroke="#111311" stroke-width="1.484" stroke-miterlimit="10" stroke-linecap="round" stroke-linejoin="round"/>
<path d="M879.825 651.617C879.825 651.617 881.194 647.75 882.88 648.524C884.564 649.297 898.431 659.51 900.011 658.736C901.593 657.962 887.473 635.436 884.624 632.095C881.774 628.755 878.772 626.63 878.772 626.63L878.056 632.401L879.825 651.617Z" fill="#111311" stroke="#111311" stroke-width="1.484" stroke-miterlimit="10" stroke-linecap="round" stroke-linejoin="round"/>
<path d="M908.842 654.774C908.842 654.774 915.571 689.787 915.347 704.574Z" fill="#9D9D9D"/>
<path d="M908.842 654.774C908.842 654.774 915.571 689.787 915.347 704.574" stroke="#111311" stroke-width="1.484" stroke-miterlimit="10" stroke-linecap="round" stroke-linejoin="round"/>
<path d="M907.502 723.756C907.502 723.756 916.589 699.489 918.212 698.134C919.838 696.778 932.246 692.668 933.237 692.51C934.227 692.352 941.197 698.782 942.243 700.139C943.288 701.492 948.135 705.463 946.929 707.359C945.722 709.258 942.786 707.473 941.107 707.315C939.429 707.158 930.86 711.63 930.288 712.33C929.715 713.03 926.303 718.99 925.127 720.638C923.951 722.287 907.502 723.756 907.502 723.756Z" fill="#9D9D9D" stroke="#111311" stroke-width="1.484" stroke-miterlimit="10" stroke-linecap="round" stroke-linejoin="round"/>
<path d="M944.27 702.499C944.27 702.499 941.251 700.875 940.237 701.281C939.222 701.686 927.259 706.073 926.521 706.84C925.783 707.606 924.826 708.852 924.826 708.852" stroke="#111311" stroke-width="1.484" stroke-miterlimit="10" stroke-linecap="round" stroke-linejoin="round"/>
<path d="M922.175 704.811C922.175 704.811 924.41 702.345 926.459 701.368C928.512 700.39 935.518 698.375 936.355 698.121C937.191 697.866 940.172 698.482 940.172 698.482" stroke="#111311" stroke-width="1.484" stroke-miterlimit="10" stroke-linecap="round" stroke-linejoin="round"/>
<path d="M935.513 695.088C935.513 695.088 922.202 698.678 921.264 699.759L920.328 700.842" stroke="#111311" stroke-width="1.484" stroke-miterlimit="10" stroke-linecap="round" stroke-linejoin="round"/>
<path d="M920.902 720.714C920.902 720.714 934.008 713.044 939.585 711.111C945.159 709.179 955.436 714.751 957.146 717.674C958.859 720.598 959.876 733.895 958.378 743.578C956.879 753.262 956.059 757.482 949.348 759.001C942.639 760.52 933.699 760.906 932.781 761.127C931.866 761.348 933.284 742.755 928.96 732.217C924.637 721.679 920.902 720.714 920.902 720.714Z" fill="#111311" stroke="#111311" stroke-width="1.484" stroke-miterlimit="10" stroke-linecap="round" stroke-linejoin="round"/>
<path d="M904.716 724.977C904.716 724.977 903.357 759.792 905.169 764.253C906.981 768.714 912.939 768.357 919.264 767.419C925.586 766.482 934.908 765.216 935.463 763.121C936.018 761.028 938.242 740.7 936.079 731.915C933.916 723.129 929.114 716.547 924.581 717.346C920.047 718.145 905.354 719.827 904.716 724.977Z" fill="#111311" stroke="#111311" stroke-width="1.484" stroke-miterlimit="10" stroke-linecap="round" stroke-linejoin="round"/>
<path d="M870.362 778.113L910.213 750.779L895.88 738.739L865.253 748.331C865.253 748.331 870.943 770.017 870.362 778.113Z" fill="#9D9D9D" stroke="#111311" stroke-width="1.484" stroke-miterlimit="10" stroke-linecap="round" stroke-linejoin="round"/>
<path d="M850.12 793.805C850.12 793.805 853.909 794.163 859.662 790.225C865.416 786.288 870.516 783.782 870.642 771.097C870.771 758.409 867.221 738.653 864.685 735.922C862.15 733.192 843.557 734.422 842.931 735.607C842.307 736.795 854.457 760.602 854.03 773.757C853.604 786.914 850.12 793.805 850.12 793.805Z" fill="#111311" stroke="#111311" stroke-width="1.484" stroke-miterlimit="10" stroke-linecap="round" stroke-linejoin="round"/>
<path d="M801.52 661.98C801.52 661.98 799.505 656.414 794.585 660.629C789.662 664.846 785.684 677.669 786.818 693.716C787.952 709.763 788.333 776.548 790.648 784.985C792.96 793.422 795.096 801.345 800.988 802.151C806.881 802.958 826.639 802.086 840.573 797.922C854.505 793.761 855.801 777.445 853.034 762.987C850.266 748.528 843.404 736.174 838.854 732.258C834.306 728.34 832.247 723.663 828.281 713.077C824.316 702.491 815.633 675.769 812.773 671.761" fill="#111311"/>
<path d="M801.52 661.98C801.52 661.98 799.505 656.414 794.585 660.629C789.662 664.846 785.684 677.669 786.818 693.716C787.952 709.763 788.333 776.548 790.648 784.985C792.96 793.422 795.096 801.345 800.988 802.151C806.881 802.958 826.639 802.086 840.573 797.922C854.505 793.761 855.801 777.445 853.034 762.987C850.266 748.528 843.404 736.174 838.854 732.258C834.306 728.34 832.247 723.663 828.281 713.077C824.316 702.491 815.633 675.769 812.773 671.761" stroke="#111311" stroke-width="1.484" stroke-miterlimit="10" stroke-linecap="round" stroke-linejoin="round"/>
<path d="M813.58 755.834C812.233 756.826 810.855 757.703 809.459 758.409" stroke="#111311" stroke-width="1.484" stroke-miterlimit="10" stroke-linecap="round" stroke-linejoin="round"/>
<path d="M830.9 736.412C830.9 736.412 824.855 745.913 817.082 752.982" stroke="#111311" stroke-width="1.484" stroke-miterlimit="10" stroke-linecap="round" stroke-linejoin="round"/>
<path d="M910.127 728.374C910.127 728.374 874.087 728.521 864.914 727.39C855.743 726.261 843.282 719.96 843.282 719.96C843.282 719.96 828.374 711.634 825.199 709.542C822.025 707.448 814.033 706.686 811.729 707.491C809.425 708.294 804.085 711.878 804.502 714.475C804.92 717.072 808.042 715.58 809.65 714.453C811.26 713.329 813.804 712.547 813.804 712.547L821.34 715.055L822.544 717.218C822.544 717.218 811.64 718.225 810.093 718.845C808.546 719.465 803.254 728.678 802.279 730.634C801.304 732.587 802.062 732.402 803.514 732.54L804.968 732.679C804.968 732.679 803.746 736.655 805.137 737.299C806.529 737.942 808.591 737.116 808.591 737.116C808.591 737.116 810.069 739.049 810.796 739.118C811.523 739.187 819.557 735.603 820.861 734.96C822.164 734.317 832.301 737.585 834.965 737.839C837.632 738.093 847.834 738.809 847.834 738.809C847.834 738.809 894.964 758.133 901.38 759.767C907.797 761.401 912.188 761.564 915.539 754.211C918.888 746.856 915.574 729.916 910.127 728.374Z" fill="#9D9D9D" stroke="#111311" stroke-width="1.484" stroke-miterlimit="10" stroke-linecap="round" stroke-linejoin="round"/>
<path d="M808.385 736.355C808.385 736.355 815.802 729.503 817.608 728.664C819.414 727.828 822.932 726.901 822.932 726.901" stroke="#111311" stroke-width="1.484" stroke-miterlimit="10" stroke-linecap="round" stroke-linejoin="round"/>
<path d="M804.659 732.015L812.41 724.438L819.992 722.131" stroke="#111311" stroke-width="1.484" stroke-miterlimit="10" stroke-linecap="round" stroke-linejoin="round"/>
<path d="M629.368 527.352C629.368 527.352 631.381 528.56 634.606 529.77C637.829 530.978 645.886 533.799 649.513 537.828C653.138 541.857 651.93 551.527 651.93 551.527" stroke="#111311" stroke-width="1.484" stroke-miterlimit="10" stroke-linecap="round" stroke-linejoin="round"/>
<path d="M583.37 560.867L580.214 567.639" stroke="#111311" stroke-width="1.484" stroke-miterlimit="10" stroke-linecap="round" stroke-linejoin="round"/>
<path d="M557.926 539.601C557.926 539.601 555.728 549.98 553.508 552.359C551.288 554.738 547.761 557.548 548.932 562.738C550.104 567.927 556.944 571.17 556.923 572.035C556.902 572.9 544.52 575.279 544.857 579.172C545.195 583.064 548.54 587.82 548.54 587.82C548.54 587.82 539.384 590.848 538.609 596.037C537.834 601.227 540.952 606.416 540.906 608.363C540.859 610.309 535.347 614.633 536.994 618.094C538.639 621.553 542.542 621.121 542.743 621.77C542.942 622.418 540.497 625.229 540.455 626.959C540.412 628.688 541.674 630.202 541.674 630.202H614.759L594.031 522.087L566.528 532.681L557.926 539.601Z" fill="#21A038" stroke="#111311" stroke-width="1.484" stroke-miterlimit="10" stroke-linecap="round" stroke-linejoin="round"/>
<path d="M656.937 784.958C656.937 784.958 672.012 819.265 673.99 827.685C675.968 836.107 676.908 873.592 673.769 888.191C668.054 914.776 651.677 939.963 651.677 939.963H568.656L551.536 860.026L576.539 782.15L656.937 784.958Z" fill="#9D9D9D" stroke="#111311" stroke-width="1.484" stroke-miterlimit="10" stroke-linecap="round" stroke-linejoin="round"/>
<path d="M643.169 851.076L636.181 869.164L639.509 939.576" stroke="#111311" stroke-width="1.484" stroke-miterlimit="10" stroke-linecap="round" stroke-linejoin="round"/>
<path d="M655.618 762.189C655.618 762.189 670.286 774.664 672.043 779.343C673.802 784.021 674.924 814.898 675.731 820.199C676.538 825.501 672.985 830.491 672.985 830.491L660.339 798.991C660.339 798.991 659.12 784.957 658.831 784.021C658.542 783.084 656.228 775.599 656.228 775.599L655.618 762.189Z" fill="#9D9D9D" stroke="#111311" stroke-width="1.484" stroke-miterlimit="10" stroke-linecap="round" stroke-linejoin="round"/>
<path d="M667.708 790.883C667.708 790.883 667.885 796.495 668.41 800.551C668.935 804.605 670.624 812.09 667.149 813.962" fill="#9D9D9D"/>
<path d="M667.708 790.883C667.708 790.883 667.885 796.495 668.41 800.551C668.935 804.605 670.624 812.09 667.149 813.962" stroke="#111311" stroke-width="1.484" stroke-miterlimit="10" stroke-linecap="round" stroke-linejoin="round"/>
<path d="M602.39 629.324L622.335 629.948L636.593 630.418L653.175 644.295C653.175 644.295 667.091 713.534 668.232 717.9C669.373 722.266 656.415 755.015 655.404 758.132C654.392 761.252 656.936 784.956 656.936 784.956C656.936 784.956 650.555 790.881 629.903 793.688C609.251 796.494 585.447 787.762 585.447 787.762C585.447 787.762 601.105 746.593 604.448 724.449C604.448 724.449 607.357 681.721 606.404 669.558C605.451 657.394 602.39 629.324 602.39 629.324Z" fill="#21A038" stroke="#111311" stroke-width="1.484" stroke-miterlimit="10" stroke-linecap="round" stroke-linejoin="round"/>
<path d="M652.144 731.807L619.856 748.184" stroke="#111311" stroke-width="1.484" stroke-miterlimit="10" stroke-linecap="round" stroke-linejoin="round"/>
<path d="M650.271 737.423L635.298 744.909" stroke="#111311" stroke-width="1.484" stroke-miterlimit="10" stroke-linecap="round" stroke-linejoin="round"/>
<path d="M596.927 606.399C596.927 606.399 608.924 647.935 610.475 655.286C612.027 662.638 627.386 671.287 636.799 666.529C646.212 661.773 643.189 652.691 641.597 647.07C640.003 641.447 636.595 630.419 636.595 630.419L640.224 596.686C640.224 596.686 628.829 611.823 624.678 613.552C620.527 615.282 596.927 606.399 596.927 606.399Z" fill="#9D9D9D" stroke="#111311" stroke-width="1.484" stroke-miterlimit="10" stroke-linecap="round" stroke-linejoin="round"/>
<path d="M619.371 617.327L635.091 632.496L638.953 599.952L619.371 617.327Z" fill="#111311" stroke="#111311" stroke-width="1.484" stroke-miterlimit="10" stroke-linecap="round" stroke-linejoin="round"/>
<path d="M635.643 630.842L634.816 645.733" stroke="#111311" stroke-width="1.484" stroke-miterlimit="10" stroke-linecap="round" stroke-linejoin="round"/>
<path d="M636.701 626.987C636.701 626.987 658.917 690.453 661.376 704.801C663.835 719.148 664.382 722.267 664.574 727.256C664.765 732.246 660.757 743.163 660.757 743.163C660.757 743.163 676.508 723.825 676.606 706.985C676.703 690.142 665.261 639.27 659.922 636.186C638.697 623.93 636.701 626.987 636.701 626.987Z" fill="#111311" stroke="#111311" stroke-width="1.484" stroke-miterlimit="10" stroke-linecap="round" stroke-linejoin="round"/>
<path d="M657.324 658.278C657.324 658.278 666.809 686.826 665.672 708.118" stroke="#111311" stroke-width="1.484" stroke-miterlimit="10" stroke-linecap="round" stroke-linejoin="round"/>
<path d="M581.946 556.684L592.024 542.413L638.662 589.767C638.662 589.767 635.827 617.445 635.807 618.31C635.786 619.175 638.697 623.932 638.697 623.932C638.697 623.932 639.969 625.014 641.012 626.527C642.057 628.041 640.977 628.041 640.708 630.203C640.44 632.365 641.927 633.447 642.982 634.529C644.037 635.609 646.604 636.691 648.097 637.556C649.59 638.42 648.246 640.366 647.118 642.313C645.988 644.258 644.386 647.935 646.238 651.826C648.09 655.719 649.186 655.069 652.356 658.096C655.526 661.124 650.918 663.936 650.918 663.936C650.918 663.936 653.312 663.286 655.274 662.639C657.236 661.989 658.153 659.827 657.325 658.313C656.497 656.799 654.886 651.826 655.557 650.961C656.226 650.098 662.354 647.07 664.142 644.69C665.929 642.313 663.994 641.881 665.528 641.016C667.063 640.15 670.137 638.203 670.86 635.176C671.581 632.15 667.995 628.473 669.102 627.392C670.21 626.311 674.368 619.653 674.416 617.708C674.462 615.761 671.998 612.469 671.998 612.469C671.998 612.469 673.604 611.175 674.622 604.904C675.639 598.634 670.712 596.687 670.365 593.228C670.016 589.767 675.104 585.011 675.182 572.901C675.259 560.793 655.238 557.118 654.627 555.602C654.015 554.089 654.722 551.71 654.367 548.467C654.014 545.223 646.15 539.602 646.15 539.602C646.15 539.602 647.092 536.358 647.794 534.196C648.495 532.034 647.462 530.088 643.654 526.627C639.845 523.168 621.427 506.951 613.685 505.221C605.941 503.49 592.98 511.924 591.444 512.789C589.909 513.654 577.658 510.627 573.909 513.654C570.159 516.68 568.952 521.871 568.034 524.033C567.117 526.195 563.874 526.195 561.875 528.358C559.876 530.52 556.61 549.333 556.61 549.333" fill="#21A038"/>
<path d="M581.946 556.684L592.024 542.413L638.662 589.767C638.662 589.767 635.827 617.445 635.807 618.31C635.786 619.175 638.697 623.932 638.697 623.932C638.697 623.932 639.969 625.014 641.012 626.527C642.057 628.041 640.977 628.041 640.708 630.203C640.44 632.365 641.927 633.447 642.982 634.529C644.037 635.609 646.604 636.691 648.097 637.556C649.59 638.42 648.246 640.366 647.118 642.313C645.988 644.258 644.386 647.935 646.238 651.826C648.09 655.719 649.186 655.069 652.356 658.096C655.526 661.124 650.918 663.936 650.918 663.936C650.918 663.936 653.312 663.286 655.274 662.639C657.236 661.989 658.153 659.827 657.325 658.313C656.497 656.799 654.886 651.826 655.557 650.961C656.226 650.098 662.354 647.07 664.142 644.69C665.929 642.313 663.994 641.881 665.528 641.016C667.063 640.15 670.137 638.203 670.86 635.176C671.581 632.15 667.995 628.473 669.102 627.392C670.21 626.311 674.368 619.653 674.416 617.708C674.462 615.761 671.998 612.469 671.998 612.469C671.998 612.469 673.604 611.175 674.622 604.904C675.639 598.634 670.712 596.687 670.365 593.228C670.016 589.767 675.104 585.011 675.182 572.901C675.259 560.793 655.238 557.118 654.627 555.602C654.015 554.089 654.722 551.71 654.367 548.467C654.014 545.223 646.15 539.602 646.15 539.602C646.15 539.602 647.092 536.358 647.794 534.196C648.495 532.034 647.462 530.088 643.654 526.627C639.845 523.168 621.427 506.951 613.685 505.221C605.941 503.49 592.98 511.924 591.444 512.789C589.909 513.654 577.658 510.627 573.909 513.654C570.159 516.68 568.952 521.871 568.034 524.033C567.117 526.195 563.874 526.195 561.875 528.358C559.876 530.52 556.61 549.333 556.61 549.333" stroke="#111311" stroke-width="1.484" stroke-miterlimit="10" stroke-linecap="round" stroke-linejoin="round"/>
<path d="M601.137 622.308C601.137 622.308 623.713 701.681 624.711 711.974C625.709 722.266 590.392 789.633 583.188 803.667C575.986 817.703 560.292 860.43 557.753 875.089C555.213 889.748 553.231 907.212 553.231 907.212C553.231 907.212 534.426 898.169 522.14 890.372C509.854 882.575 507.776 878.207 508.749 876.649C509.723 875.089 514.871 855.753 514.871 855.753C514.871 855.753 504.243 843.9 504.895 842.652C505.55 841.406 529.706 758.444 529.706 758.444C529.706 758.444 536.064 624.958 538.56 624.958C541.055 624.958 601.137 622.308 601.137 622.308Z" fill="#111311" stroke="#111311" stroke-width="1.484" stroke-miterlimit="10" stroke-linecap="round" stroke-linejoin="round"/>
<path d="M598.858 660.21L624.711 711.976" stroke="#111311" stroke-width="1.484" stroke-miterlimit="10" stroke-linecap="round" stroke-linejoin="round"/>
<path d="M553.508 625.893C553.508 625.893 534.885 622.151 531.646 627.14C528.405 632.131 499.845 716.652 498.097 724.449C496.347 732.246 549.84 789.944 549.84 789.944L577.42 771.544L544.849 725.695L562.656 660.201" fill="#111311"/>
<path d="M553.508 625.893C553.508 625.893 534.885 622.151 531.646 627.14C528.405 632.131 499.845 716.652 498.097 724.449C496.347 732.246 549.84 789.944 549.84 789.944L577.42 771.544L544.849 725.695L562.656 660.201" stroke="#111311" stroke-width="1.484" stroke-miterlimit="10" stroke-linecap="round" stroke-linejoin="round"/>
<path d="M557.979 680.557L544.684 721.652L574.429 766.242" stroke="#111311" stroke-width="1.484" stroke-miterlimit="10" stroke-linecap="round" stroke-linejoin="round"/>
<path d="M561.605 667.666L559.7 673.743" stroke="#111311" stroke-width="1.484" stroke-miterlimit="10" stroke-linecap="round" stroke-linejoin="round"/>
<path d="M574.287 766.239L544.507 791.037L554.638 803.344L585.971 779.187L574.287 766.239Z" fill="#9D9D9D" stroke="#111311" stroke-width="1.484" stroke-miterlimit="10" stroke-linecap="round" stroke-linejoin="round"/>
<path d="M583.758 780.278C583.758 780.278 608.667 807.723 611.444 808.971C614.22 810.219 619.69 816.144 621.182 818.951C622.673 821.757 624.766 825.501 626.91 827.059C629.056 828.619 629.323 830.49 625.557 831.427C621.792 832.362 618.353 832.675 616.276 828.307C614.199 823.941 610.866 819.886 610.866 819.886L589.584 835.793C589.584 835.793 585.003 818.951 584.463 815.52C583.921 812.09 582.81 806.475 582.81 806.475L568.485 792.752L583.758 780.278Z" fill="#9D9D9D" stroke="#111311" stroke-width="1.484" stroke-miterlimit="10" stroke-linecap="round" stroke-linejoin="round"/>
<path d="M548.858 603.173C548.858 603.173 546.793 617.009 547.975 621.769C549.226 626.807 559.363 625.904 557.284 632.593C556.613 634.75 553.994 637.05 554.813 639.497C555.653 642.004 558.952 642.146 560.784 643.569C564.152 646.185 562.947 648.992 564.091 652.694C564.919 655.37 567.768 656.294 568.538 658.417C569.453 660.929 567.7 662.501 570.49 665.233C575.347 669.99 579.002 670.854 579.661 670.422C580.32 669.99 579.05 668.908 582.113 667.395C585.177 665.881 591.083 663.07 590.061 660.692C589.053 658.35 588.046 656.01 588.022 655.952C589.448 659.236 593.876 655.919 595.086 654.19C597.849 650.246 593.624 645.997 594.118 641.733C594.664 637.008 599.986 634.575 600.581 629.812C601.163 625.15 596.32 621.938 597.375 617.661C597.855 615.716 598.123 613.552 598.123 613.552C598.123 613.552 596.715 609.228 594.589 607.714C592.463 606.201 591.745 600.146 591.582 597.984" fill="#21A038"/>
<path d="M548.858 603.173C548.858 603.173 546.793 617.009 547.975 621.769C549.226 626.807 559.363 625.904 557.284 632.593C556.613 634.75 553.994 637.05 554.813 639.497C555.653 642.004 558.952 642.146 560.784 643.569C564.152 646.185 562.947 648.992 564.091 652.694C564.919 655.37 567.768 656.294 568.538 658.417C569.453 660.929 567.7 662.501 570.49 665.233C575.347 669.99 579.002 670.854 579.661 670.422C580.32 669.99 579.05 668.908 582.113 667.395C585.177 665.881 591.083 663.07 590.061 660.692C589.053 658.35 588.046 656.01 588.022 655.952C589.448 659.236 593.876 655.919 595.086 654.19C597.849 650.246 593.624 645.997 594.118 641.733C594.664 637.008 599.986 634.575 600.581 629.812C601.163 625.15 596.32 621.938 597.375 617.661C597.855 615.716 598.123 613.552 598.123 613.552C598.123 613.552 596.715 609.228 594.589 607.714C592.463 606.201 591.745 600.146 591.582 597.984" stroke="#111311" stroke-width="1.484" stroke-miterlimit="10" stroke-linecap="round" stroke-linejoin="round"/>
<path d="M587.756 534.612C587.756 534.612 570.275 560.03 571.612 565.407C572.947 570.785 586.287 605.246 590.847 608.668C595.408 612.089 613.789 620.156 619.892 620.401C625.996 620.644 630.454 618.2 633 614.045C635.545 609.891 645.242 593.025 645.329 589.36C645.419 585.693 637.595 550.509 636.141 550.02C634.686 549.531 587.756 534.612 587.756 534.612Z" fill="#9D9D9D" stroke="black" stroke-width="1.484" stroke-miterlimit="10" stroke-linecap="round" stroke-linejoin="round"/>
<path d="M614.47 561.617C614.47 561.617 613.967 568.402 614.591 570.606C615.216 572.811 620.959 580.781 621.094 582.139C621.232 583.496 618.995 584.852 615.912 586.039" stroke="#111311" stroke-width="1.484" stroke-miterlimit="10" stroke-linecap="round" stroke-linejoin="round"/>
<path d="M575.014 575.912C575.014 575.912 571.189 572.485 569.139 576.641C567.089 580.797 568.667 586.422 575.148 591.073C581.632 595.723 583.096 595.725 583.096 595.725L575.014 575.912Z" fill="#9D9D9D" stroke="#111311" stroke-width="1.484" stroke-miterlimit="10" stroke-linecap="round" stroke-linejoin="round"/>
<path d="M638.984 558.807C638.984 558.807 642.446 557.096 644.052 561.496C645.656 565.895 643.183 577.139 643.183 577.139L638.984 558.807Z" fill="#9D9D9D" stroke="#111311" stroke-width="1.484" stroke-miterlimit="10" stroke-linecap="round" stroke-linejoin="round"/>
<path d="M605.837 594.593C605.837 594.593 617.094 594 619.823 592.673C622.551 591.344 627.231 585.772 627.231 585.772C627.231 585.772 627.531 598.281 621.63 600.276C617.483 601.678 605.837 594.593 605.837 594.593Z" fill="#9D9D9D" stroke="#111311" stroke-width="1.484" stroke-miterlimit="10" stroke-linecap="round" stroke-linejoin="round"/>
<path d="M587.39 568.229C587.39 568.229 588.104 561.657 599.4 560.663Z" fill="#9D9D9D"/>
<path d="M587.39 568.229C587.39 568.229 588.104 561.657 599.4 560.663" stroke="#111311" stroke-width="1.484" stroke-miterlimit="10" stroke-linecap="round" stroke-linejoin="round"/>
<path d="M614.304 556.157C614.304 556.157 621.244 549.934 628.623 557.376Z" fill="#9D9D9D"/>
<path d="M614.304 556.157C614.304 556.157 621.244 549.934 628.623 557.376" stroke="#111311" stroke-width="1.484" stroke-miterlimit="10" stroke-linecap="round" stroke-linejoin="round"/>
<path d="M601.202 571.559C601.828 573.576 601.253 575.542 599.914 575.954C598.575 576.362 596.98 575.06 596.352 573.043C595.726 571.025 596.301 569.058 597.641 568.647C598.98 568.238 600.574 569.54 601.202 571.559Z" fill="#111311"/>
<path d="M624.275 565.167C624.902 567.186 624.325 569.152 622.986 569.562C621.648 569.973 620.053 568.669 619.426 566.65C618.797 564.634 619.374 562.666 620.713 562.256C622.051 561.847 623.647 563.149 624.275 565.167Z" fill="#111311"/>
</g>
<defs>
<filter id="filter0_f_104_307" x="0" y="313.156" width="910.844" height="910.844" filterUnits="userSpaceOnUse" color-interpolation-filters="sRGB">
<feFlood flood-opacity="0" result="BackgroundImageFix"/>
<feBlend mode="normal" in="SourceGraphic" in2="BackgroundImageFix" result="shape"/>
<feGaussianBlur stdDeviation="163" result="effect1_foregroundBlur_104_307"/>
</filter>
<filter id="filter1_f_104_307" x="427.555" y="0" width="1171.11" height="1171.11" filterUnits="userSpaceOnUse" color-interpolation-filters="sRGB">
<feFlood flood-opacity="0" result="BackgroundImageFix"/>
<feBlend mode="normal" in="SourceGraphic" in2="BackgroundImageFix" result="shape"/>
<feGaussianBlur stdDeviation="163" result="effect1_foregroundBlur_104_307"/>
</filter>
<filter id="filter2_f_104_307" x="370.763" y="380.678" width="643.395" height="643.395" filterUnits="userSpaceOnUse" color-interpolation-filters="sRGB">
<feFlood flood-opacity="0" result="BackgroundImageFix"/>
<feBlend mode="normal" in="SourceGraphic" in2="BackgroundImageFix" result="shape"/>
<feGaussianBlur stdDeviation="100" result="effect1_foregroundBlur_104_307"/>
</filter>
<clipPath id="clip0_104_307">
<rect width="742" height="671.333" fill="white" transform="translate(411 260.143)"/>
</clipPath>
</defs>
</svg>
