<svg width="638" height="440" viewBox="0 0 638 440" fill="none" xmlns="http://www.w3.org/2000/svg">
<g filter="url(#filter0_d_102_5)">
<rect x="10" y="10" width="618" height="420" rx="20" fill="#D9D9D9"/>
</g>
<path d="M269.072 209.636V230H266.607V209.636H269.072ZM274.017 209.636H276.96L283.88 226.54H284.119L291.039 209.636H293.983V230H291.676V214.528H291.477L285.113 230H282.886L276.522 214.528H276.324V230H274.017V209.636ZM299.762 230H297.177L304.654 209.636H307.2L314.677 230H312.092L306.006 212.858H305.847L299.762 230ZM300.717 222.045H311.137V224.233H300.717V222.045ZM330.812 216C330.593 215.33 330.305 214.731 329.947 214.2C329.596 213.663 329.175 213.206 328.684 212.828C328.2 212.45 327.65 212.162 327.034 211.963C326.417 211.764 325.741 211.665 325.005 211.665C323.799 211.665 322.702 211.976 321.714 212.599C320.726 213.223 319.941 214.141 319.358 215.354C318.774 216.567 318.483 218.055 318.483 219.818C318.483 221.581 318.778 223.07 319.368 224.283C319.958 225.496 320.756 226.414 321.764 227.037C322.771 227.66 323.905 227.972 325.164 227.972C326.331 227.972 327.359 227.723 328.247 227.226C329.142 226.722 329.838 226.013 330.335 225.098C330.839 224.177 331.091 223.093 331.091 221.847L331.846 222.006H325.721V219.818H333.477V222.006C333.477 223.683 333.119 225.141 332.403 226.381C331.694 227.62 330.713 228.581 329.46 229.264C328.214 229.94 326.782 230.278 325.164 230.278C323.361 230.278 321.777 229.854 320.412 229.006C319.053 228.157 317.992 226.951 317.23 225.386C316.474 223.822 316.096 221.966 316.096 219.818C316.096 218.207 316.312 216.759 316.743 215.473C317.18 214.18 317.797 213.08 318.592 212.172C319.387 211.264 320.329 210.568 321.416 210.084C322.503 209.6 323.699 209.358 325.005 209.358C326.079 209.358 327.08 209.52 328.008 209.845C328.943 210.163 329.775 210.617 330.504 211.207C331.24 211.791 331.853 212.49 332.343 213.305C332.834 214.114 333.172 215.012 333.358 216H330.812ZM337.7 230V209.636H349.99V211.824H340.166V218.705H349.354V220.892H340.166V227.812H350.149V230H337.7ZM369.111 209.636V230H366.645V212.222H366.526L361.554 215.523V213.017L366.645 209.636H369.111Z" fill="#353434"/>
<defs>
<filter id="filter0_d_102_5" x="0" y="0" width="638" height="440" filterUnits="userSpaceOnUse" color-interpolation-filters="sRGB">
<feFlood flood-opacity="0" result="BackgroundImageFix"/>
<feColorMatrix in="SourceAlpha" type="matrix" values="0 0 0 0 0 0 0 0 0 0 0 0 0 0 0 0 0 0 127 0" result="hardAlpha"/>
<feMorphology radius="10" operator="dilate" in="SourceAlpha" result="effect1_dropShadow_102_5"/>
<feOffset/>
<feComposite in2="hardAlpha" operator="out"/>
<feColorMatrix type="matrix" values="0 0 0 0 0.85098 0 0 0 0 0.85098 0 0 0 0 0.85098 0 0 0 0.25 0"/>
<feBlend mode="normal" in2="BackgroundImageFix" result="effect1_dropShadow_102_5"/>
<feBlend mode="normal" in="SourceGraphic" in2="effect1_dropShadow_102_5" result="shape"/>
</filter>
</defs>
</svg>
