<svg width="120" height="100" viewBox="0 0 120 100" fill="none" xmlns="http://www.w3.org/2000/svg">
<g filter="url(#filter0_dd_1_1453)">
<rect x="10" y="10" width="100" height="80" rx="5" fill="black" fill-opacity="0.7" shape-rendering="crispEdges"/>
<rect x="10.5" y="10.5" width="99" height="79" rx="4.5" stroke="#B6FFBA" shape-rendering="crispEdges"/>
<path d="M52.6506 60V56.8977L59.8991 50.1861C60.5156 49.5895 61.0327 49.0526 61.4503 48.5753C61.8745 48.098 62.196 47.6307 62.4148 47.1733C62.6335 46.7093 62.7429 46.2088 62.7429 45.6719C62.7429 45.0753 62.607 44.5616 62.3352 44.1307C62.0634 43.6932 61.6922 43.3584 61.2216 43.1264C60.7509 42.8878 60.2173 42.7685 59.6207 42.7685C58.9976 42.7685 58.4541 42.8944 57.9901 43.1463C57.526 43.3982 57.1681 43.7595 56.9162 44.2301C56.6643 44.7008 56.5384 45.2609 56.5384 45.9105H52.4517C52.4517 44.5781 52.7533 43.4214 53.3565 42.4403C53.9598 41.4593 54.8049 40.7003 55.892 40.1634C56.9792 39.6264 58.232 39.358 59.6506 39.358C61.1089 39.358 62.3783 39.6165 63.4588 40.1335C64.5459 40.6439 65.3911 41.3532 65.9943 42.2614C66.5975 43.1695 66.8991 44.2102 66.8991 45.3835C66.8991 46.1525 66.7467 46.9115 66.4418 47.6605C66.1435 48.4096 65.6098 49.2415 64.8409 50.1562C64.072 51.0644 62.9882 52.1548 61.5895 53.4276L58.6165 56.3409V56.4801H67.1676V60H52.6506Z" fill="#21A038"/>
</g>
<defs>
<filter id="filter0_dd_1_1453" x="0" y="0" width="120" height="100" filterUnits="userSpaceOnUse" color-interpolation-filters="sRGB">
<feFlood flood-opacity="0" result="BackgroundImageFix"/>
<feColorMatrix in="SourceAlpha" type="matrix" values="0 0 0 0 0 0 0 0 0 0 0 0 0 0 0 0 0 0 127 0" result="hardAlpha"/>
<feOffset dy="4"/>
<feGaussianBlur stdDeviation="2"/>
<feComposite in2="hardAlpha" operator="out"/>
<feColorMatrix type="matrix" values="0 0 0 0 0 0 0 0 0 0 0 0 0 0 0 0 0 0 0.5 0"/>
<feBlend mode="normal" in2="BackgroundImageFix" result="effect1_dropShadow_1_1453"/>
<feColorMatrix in="SourceAlpha" type="matrix" values="0 0 0 0 0 0 0 0 0 0 0 0 0 0 0 0 0 0 127 0" result="hardAlpha"/>
<feOffset/>
<feGaussianBlur stdDeviation="5"/>
<feComposite in2="hardAlpha" operator="out"/>
<feColorMatrix type="matrix" values="0 0 0 0 0.713726 0 0 0 0 1 0 0 0 0 0.729412 0 0 0 1 0"/>
<feBlend mode="normal" in2="effect1_dropShadow_1_1453" result="effect2_dropShadow_1_1453"/>
<feBlend mode="normal" in="SourceGraphic" in2="effect2_dropShadow_1_1453" result="shape"/>
</filter>
</defs>
</svg>
