<svg width="121" height="100" viewBox="0 0 121 100" fill="none" xmlns="http://www.w3.org/2000/svg">
<g filter="url(#filter0_dd_6445_41)">
<rect x="10.5" y="10" width="100" height="80" rx="5" fill="black" fill-opacity="0.7" shape-rendering="crispEdges"/>
<rect x="11" y="10.5" width="99" height="79" rx="4.5" stroke="#B6FFBA" shape-rendering="crispEdges"/>
<path d="M48.5156 51.6974L34.5156 57.8622V53.8352L44.1009 49.9872L43.9716 50.196V49.6989L44.1009 49.9077L34.5156 46.0597V42.0327L48.5156 48.1974V51.6974ZM60.2088 60.2784C58.724 60.2784 57.4015 60.0232 56.2415 59.5128C55.0881 58.9957 54.1766 58.2865 53.5071 57.3849C52.8442 56.4768 52.5028 55.4295 52.483 54.2429H56.8182C56.8447 54.7401 57.0071 55.1776 57.3054 55.5554C57.6103 55.9266 58.0147 56.215 58.5185 56.4205C59.0223 56.6259 59.589 56.7287 60.2188 56.7287C60.875 56.7287 61.455 56.6127 61.9588 56.3807C62.4626 56.1487 62.857 55.8272 63.142 55.4162C63.4271 55.0052 63.5696 54.5312 63.5696 53.9943C63.5696 53.4508 63.4171 52.9702 63.1122 52.5526C62.8139 52.1283 62.383 51.7969 61.8196 51.5582C61.2628 51.3196 60.5999 51.2003 59.831 51.2003H57.9318V48.0384H59.831C60.4806 48.0384 61.054 47.9257 61.5511 47.7003C62.0549 47.4749 62.446 47.1634 62.7244 46.7656C63.0028 46.3613 63.142 45.8906 63.142 45.3537C63.142 44.8433 63.0194 44.3958 62.7741 44.0114C62.5355 43.6203 62.1974 43.3153 61.7599 43.0966C61.3291 42.8778 60.8253 42.7685 60.2486 42.7685C59.6652 42.7685 59.1316 42.8745 58.6477 43.0866C58.1638 43.2921 57.776 43.5871 57.4844 43.9716C57.1927 44.3561 57.0369 44.8068 57.017 45.3239H52.8906C52.9105 44.1506 53.2453 43.1165 53.8949 42.2216C54.5445 41.3267 55.4195 40.6274 56.5199 40.1236C57.6269 39.6132 58.8764 39.358 60.2685 39.358C61.6738 39.358 62.9034 39.6132 63.9574 40.1236C65.0114 40.634 65.83 41.3234 66.4134 42.1918C67.0033 43.0535 67.295 44.0213 67.2884 45.0952C67.295 46.2353 66.9403 47.1866 66.2244 47.9489C65.5152 48.7112 64.5904 49.1951 63.4503 49.4006V49.5597C64.9484 49.7519 66.0885 50.2723 66.8707 51.1207C67.6596 51.9626 68.0507 53.0166 68.044 54.2827C68.0507 55.4427 67.7159 56.4735 67.0398 57.375C66.3703 58.2765 65.4455 58.9858 64.2656 59.5028C63.0857 60.0199 61.7334 60.2784 60.2088 60.2784ZM79.1232 60.4474C77.413 60.4408 75.9414 60.0199 74.7085 59.1847C73.4821 58.3494 72.5375 57.1397 71.8746 55.5554C71.2184 53.9711 70.8936 52.0653 70.9002 49.8381C70.9002 47.6174 71.2283 45.7249 71.8846 44.1605C72.5475 42.5961 73.4921 41.4062 74.7184 40.5909C75.9513 39.7689 77.4196 39.358 79.1232 39.358C80.8268 39.358 82.2918 39.7689 83.5181 40.5909C84.7511 41.4129 85.699 42.6061 86.3619 44.1705C87.0247 45.7282 87.3529 47.6174 87.3462 49.8381C87.3462 52.072 87.0148 53.9811 86.3519 55.5653C85.6957 57.1496 84.7544 58.3594 83.5281 59.1946C82.3017 60.0298 80.8335 60.4474 79.1232 60.4474ZM79.1232 56.8778C80.2899 56.8778 81.2212 56.2912 81.9173 55.1179C82.6133 53.9446 82.958 52.1847 82.9513 49.8381C82.9513 48.2936 82.7923 47.0076 82.4741 45.9801C82.1625 44.9527 81.7184 44.1804 81.1417 43.6634C80.5716 43.1463 79.8988 42.8878 79.1232 42.8878C77.9632 42.8878 77.0352 43.4678 76.3391 44.6278C75.6431 45.7879 75.2918 47.5246 75.2852 49.8381C75.2852 51.4025 75.4409 52.7083 75.7525 53.7557C76.0707 54.7964 76.5181 55.5786 77.0948 56.1023C77.6715 56.6193 78.3477 56.8778 79.1232 56.8778Z" fill="#21A038"/>
</g>
<defs>
<filter id="filter0_dd_6445_41" x="0.5" y="0" width="120" height="100" filterUnits="userSpaceOnUse" color-interpolation-filters="sRGB">
<feFlood flood-opacity="0" result="BackgroundImageFix"/>
<feColorMatrix in="SourceAlpha" type="matrix" values="0 0 0 0 0 0 0 0 0 0 0 0 0 0 0 0 0 0 127 0" result="hardAlpha"/>
<feOffset dy="4"/>
<feGaussianBlur stdDeviation="2"/>
<feComposite in2="hardAlpha" operator="out"/>
<feColorMatrix type="matrix" values="0 0 0 0 0 0 0 0 0 0 0 0 0 0 0 0 0 0 0.5 0"/>
<feBlend mode="normal" in2="BackgroundImageFix" result="effect1_dropShadow_6445_41"/>
<feColorMatrix in="SourceAlpha" type="matrix" values="0 0 0 0 0 0 0 0 0 0 0 0 0 0 0 0 0 0 127 0" result="hardAlpha"/>
<feOffset/>
<feGaussianBlur stdDeviation="5"/>
<feComposite in2="hardAlpha" operator="out"/>
<feColorMatrix type="matrix" values="0 0 0 0 0.713726 0 0 0 0 1 0 0 0 0 0.729412 0 0 0 1 0"/>
<feBlend mode="normal" in2="effect1_dropShadow_6445_41" result="effect2_dropShadow_6445_41"/>
<feBlend mode="normal" in="SourceGraphic" in2="effect2_dropShadow_6445_41" result="shape"/>
</filter>
</defs>
</svg>
