<svg width="638" height="440" viewBox="0 0 638 440" fill="none" xmlns="http://www.w3.org/2000/svg">
<g filter="url(#filter0_d_102_5)">
<rect x="10" y="10" width="618" height="420" rx="20" fill="#D9D9D9"/>
</g>
<path d="M267.104 209.636V230H264.638V209.636H267.104ZM272.048 209.636H274.991L281.912 226.54H282.15L289.071 209.636H292.014V230H289.707V214.528H289.508L283.145 230H280.917L274.554 214.528H274.355V230H272.048V209.636ZM297.793 230H295.208L302.685 209.636H305.231L312.708 230H310.123L304.038 212.858H303.879L297.793 230ZM298.748 222.045H309.168V224.233H298.748V222.045ZM328.843 216C328.625 215.33 328.336 214.731 327.978 214.2C327.627 213.663 327.206 213.206 326.716 212.828C326.232 212.45 325.681 212.162 325.065 211.963C324.449 211.764 323.772 211.665 323.037 211.665C321.83 211.665 320.733 211.976 319.745 212.599C318.758 213.223 317.972 214.141 317.389 215.354C316.806 216.567 316.514 218.055 316.514 219.818C316.514 221.581 316.809 223.07 317.399 224.283C317.989 225.496 318.788 226.414 319.795 227.037C320.803 227.66 321.936 227.972 323.196 227.972C324.362 227.972 325.39 227.723 326.278 227.226C327.173 226.722 327.869 226.013 328.366 225.098C328.87 224.177 329.122 223.093 329.122 221.847L329.877 222.006H323.752V219.818H331.508V222.006C331.508 223.683 331.15 225.141 330.434 226.381C329.725 227.62 328.744 228.581 327.491 229.264C326.245 229.94 324.813 230.278 323.196 230.278C321.393 230.278 319.808 229.854 318.443 229.006C317.084 228.157 316.023 226.951 315.261 225.386C314.505 223.822 314.127 221.966 314.127 219.818C314.127 218.207 314.343 216.759 314.774 215.473C315.211 214.18 315.828 213.08 316.623 212.172C317.419 211.264 318.36 210.568 319.447 210.084C320.534 209.6 321.731 209.358 323.037 209.358C324.11 209.358 325.111 209.52 326.039 209.845C326.974 210.163 327.806 210.617 328.535 211.207C329.271 211.791 329.884 212.49 330.375 213.305C330.865 214.114 331.203 215.012 331.389 216H328.843ZM335.732 230V209.636H348.021V211.824H338.197V218.705H347.385V220.892H338.197V227.812H348.18V230H335.732ZM359.983 230V228.21L366.705 220.852C367.493 219.991 368.143 219.241 368.653 218.605C369.164 217.962 369.542 217.359 369.787 216.795C370.039 216.225 370.165 215.629 370.165 215.006C370.165 214.29 369.992 213.67 369.648 213.146C369.31 212.623 368.846 212.218 368.256 211.933C367.666 211.648 367.003 211.506 366.267 211.506C365.485 211.506 364.802 211.668 364.219 211.993C363.642 212.311 363.195 212.759 362.876 213.335C362.565 213.912 362.409 214.588 362.409 215.364H360.062C360.062 214.17 360.338 213.123 360.888 212.222C361.438 211.32 362.187 210.617 363.135 210.114C364.089 209.61 365.16 209.358 366.347 209.358C367.54 209.358 368.597 209.61 369.518 210.114C370.44 210.617 371.162 211.297 371.686 212.152C372.21 213.007 372.472 213.958 372.472 215.006C372.472 215.755 372.336 216.487 372.064 217.203C371.799 217.912 371.335 218.705 370.672 219.58C370.016 220.448 369.104 221.509 367.938 222.761L363.364 227.653V227.812H372.83V230H359.983Z" fill="#353434"/>
<defs>
<filter id="filter0_d_102_5" x="0" y="0" width="638" height="440" filterUnits="userSpaceOnUse" color-interpolation-filters="sRGB">
<feFlood flood-opacity="0" result="BackgroundImageFix"/>
<feColorMatrix in="SourceAlpha" type="matrix" values="0 0 0 0 0 0 0 0 0 0 0 0 0 0 0 0 0 0 127 0" result="hardAlpha"/>
<feMorphology radius="10" operator="dilate" in="SourceAlpha" result="effect1_dropShadow_102_5"/>
<feOffset/>
<feComposite in2="hardAlpha" operator="out"/>
<feColorMatrix type="matrix" values="0 0 0 0 0.85098 0 0 0 0 0.85098 0 0 0 0 0.85098 0 0 0 0.25 0"/>
<feBlend mode="normal" in2="BackgroundImageFix" result="effect1_dropShadow_102_5"/>
<feBlend mode="normal" in="SourceGraphic" in2="effect1_dropShadow_102_5" result="shape"/>
</filter>
</defs>
</svg>
