<svg width="121" height="100" viewBox="0 0 121 100" fill="none" xmlns="http://www.w3.org/2000/svg">
<g filter="url(#filter0_dd_6338_202)">
<rect x="10.5" y="10" width="100" height="80" rx="5" fill="black" fill-opacity="0.7" shape-rendering="crispEdges"/>
<rect x="11" y="10.5" width="99" height="79" rx="4.5" stroke="#B6FFBA" shape-rendering="crispEdges"/>
<path d="M44.5099 39.6364V60H40.2045V43.723H40.0852L35.4219 46.6463V42.8281L40.4631 39.6364H44.5099ZM57.3342 60.4474C55.6239 60.4408 54.1523 60.0199 52.9194 59.1847C51.6931 58.3494 50.7485 57.1397 50.0856 55.5554C49.4293 53.9711 49.1045 52.0653 49.1112 49.8381C49.1112 47.6174 49.4393 45.7249 50.0955 44.1605C50.7584 42.5961 51.703 41.4062 52.9293 40.5909C54.1623 39.7689 55.6306 39.358 57.3342 39.358C59.0378 39.358 60.5027 39.7689 61.729 40.5909C62.962 41.4129 63.9099 42.6061 64.5728 44.1705C65.2357 45.7282 65.5638 47.6174 65.5572 49.8381C65.5572 52.072 65.2257 53.9811 64.5629 55.5653C63.9066 57.1496 62.9653 58.3594 61.739 59.1946C60.5127 60.0298 59.0444 60.4474 57.3342 60.4474ZM57.3342 56.8778C58.5008 56.8778 59.4322 56.2912 60.1282 55.1179C60.8242 53.9446 61.1689 52.1847 61.1623 49.8381C61.1623 48.2936 61.0032 47.0076 60.685 45.9801C60.3735 44.9527 59.9293 44.1804 59.3526 43.6634C58.7826 43.1463 58.1097 42.8878 57.3342 42.8878C56.1741 42.8878 55.2461 43.4678 54.5501 44.6278C53.854 45.7879 53.5027 47.5246 53.4961 49.8381C53.4961 51.4025 53.6519 52.7083 53.9634 53.7557C54.2816 54.7964 54.729 55.5786 55.3058 56.1023C55.8825 56.6193 56.5586 56.8778 57.3342 56.8778ZM76.6115 60.4474C74.9013 60.4408 73.4297 60.0199 72.1967 59.1847C70.9704 58.3494 70.0258 57.1397 69.3629 55.5554C68.7067 53.9711 68.3819 52.0653 68.3885 49.8381C68.3885 47.6174 68.7166 45.7249 69.3729 44.1605C70.0357 42.5961 70.9804 41.4062 72.2067 40.5909C73.4396 39.7689 74.9079 39.358 76.6115 39.358C78.3151 39.358 79.7801 39.7689 81.0064 40.5909C82.2393 41.4129 83.1873 42.6061 83.8501 44.1705C84.513 45.7282 84.8411 47.6174 84.8345 49.8381C84.8345 52.072 84.5031 53.9811 83.8402 55.5653C83.1839 57.1496 82.2427 58.3594 81.0163 59.1946C79.79 60.0298 78.3217 60.4474 76.6115 60.4474ZM76.6115 56.8778C77.7782 56.8778 78.7095 56.2912 79.4055 55.1179C80.1016 53.9446 80.4463 52.1847 80.4396 49.8381C80.4396 48.2936 80.2805 47.0076 79.9624 45.9801C79.6508 44.9527 79.2067 44.1804 78.63 43.6634C78.0599 43.1463 77.3871 42.8878 76.6115 42.8878C75.4515 42.8878 74.5234 43.4678 73.8274 44.6278C73.1314 45.7879 72.7801 47.5246 72.7734 49.8381C72.7734 51.4025 72.9292 52.7083 73.2408 53.7557C73.5589 54.7964 74.0064 55.5786 74.5831 56.1023C75.1598 56.6193 75.8359 56.8778 76.6115 56.8778Z" fill="#21A038"/>
</g>
<defs>
<filter id="filter0_dd_6338_202" x="0.5" y="0" width="120" height="100" filterUnits="userSpaceOnUse" color-interpolation-filters="sRGB">
<feFlood flood-opacity="0" result="BackgroundImageFix"/>
<feColorMatrix in="SourceAlpha" type="matrix" values="0 0 0 0 0 0 0 0 0 0 0 0 0 0 0 0 0 0 127 0" result="hardAlpha"/>
<feOffset dy="4"/>
<feGaussianBlur stdDeviation="2"/>
<feComposite in2="hardAlpha" operator="out"/>
<feColorMatrix type="matrix" values="0 0 0 0 0 0 0 0 0 0 0 0 0 0 0 0 0 0 0.5 0"/>
<feBlend mode="normal" in2="BackgroundImageFix" result="effect1_dropShadow_6338_202"/>
<feColorMatrix in="SourceAlpha" type="matrix" values="0 0 0 0 0 0 0 0 0 0 0 0 0 0 0 0 0 0 127 0" result="hardAlpha"/>
<feOffset/>
<feGaussianBlur stdDeviation="5"/>
<feComposite in2="hardAlpha" operator="out"/>
<feColorMatrix type="matrix" values="0 0 0 0 0.713726 0 0 0 0 1 0 0 0 0 0.729412 0 0 0 1 0"/>
<feBlend mode="normal" in2="effect1_dropShadow_6338_202" result="effect2_dropShadow_6338_202"/>
<feBlend mode="normal" in="SourceGraphic" in2="effect2_dropShadow_6338_202" result="shape"/>
</filter>
</defs>
</svg>
