<svg width="638" height="440" viewBox="0 0 638 440" fill="none" xmlns="http://www.w3.org/2000/svg">
<g filter="url(#filter0_d_102_5)">
<rect x="10" y="10" width="618" height="420" rx="20" fill="#D9D9D9"/>
</g>
<path d="M266.166 209.636V230H263.7V209.636H266.166ZM271.11 209.636H274.054L280.974 226.54H281.213L288.133 209.636H291.076V230H288.77V214.528H288.571L282.207 230H279.98L273.616 214.528H273.417V230H271.11V209.636ZM296.856 230H294.271L301.748 209.636H304.293L311.771 230H309.185L303.1 212.858H302.941L296.856 230ZM297.81 222.045H308.231V224.233H297.81V222.045ZM327.906 216C327.687 215.33 327.399 214.731 327.041 214.2C326.69 213.663 326.269 213.206 325.778 212.828C325.294 212.45 324.744 212.162 324.127 211.963C323.511 211.764 322.835 211.665 322.099 211.665C320.893 211.665 319.796 211.976 318.808 212.599C317.82 213.223 317.035 214.141 316.451 215.354C315.868 216.567 315.576 218.055 315.576 219.818C315.576 221.581 315.871 223.07 316.461 224.283C317.051 225.496 317.85 226.414 318.858 227.037C319.865 227.66 320.999 227.972 322.258 227.972C323.425 227.972 324.452 227.723 325.341 227.226C326.235 226.722 326.931 226.013 327.429 225.098C327.932 224.177 328.184 223.093 328.184 221.847L328.94 222.006H322.815V219.818H330.571V222.006C330.571 223.683 330.213 225.141 329.497 226.381C328.788 227.62 327.806 228.581 326.554 229.264C325.307 229.94 323.876 230.278 322.258 230.278C320.455 230.278 318.871 229.854 317.505 229.006C316.146 228.157 315.086 226.951 314.324 225.386C313.568 223.822 313.19 221.966 313.19 219.818C313.19 218.207 313.405 216.759 313.836 215.473C314.274 214.18 314.89 213.08 315.686 212.172C316.481 211.264 317.422 210.568 318.51 210.084C319.597 209.6 320.793 209.358 322.099 209.358C323.173 209.358 324.174 209.52 325.102 209.845C326.037 210.163 326.868 210.617 327.598 211.207C328.333 211.791 328.947 212.49 329.437 213.305C329.928 214.114 330.266 215.012 330.451 216H327.906ZM334.794 230V209.636H347.084V211.824H337.26V218.705H346.447V220.892H337.26V227.812H347.243V230H334.794ZM365.926 230.278C364.614 230.278 363.444 230.053 362.416 229.602C361.395 229.152 360.583 228.525 359.98 227.723C359.384 226.914 359.059 225.976 359.006 224.909H361.511C361.564 225.565 361.79 226.132 362.188 226.609C362.585 227.08 363.106 227.445 363.749 227.703C364.392 227.962 365.104 228.091 365.886 228.091C366.761 228.091 367.537 227.938 368.213 227.634C368.889 227.329 369.42 226.904 369.804 226.361C370.188 225.817 370.381 225.188 370.381 224.472C370.381 223.723 370.195 223.063 369.824 222.493C369.453 221.916 368.909 221.465 368.193 221.141C367.477 220.816 366.602 220.653 365.568 220.653H363.938V218.466H365.568C366.377 218.466 367.086 218.32 367.696 218.028C368.313 217.737 368.793 217.326 369.138 216.795C369.489 216.265 369.665 215.642 369.665 214.926C369.665 214.237 369.512 213.637 369.207 213.126C368.902 212.616 368.472 212.218 367.915 211.933C367.365 211.648 366.715 211.506 365.966 211.506C365.263 211.506 364.6 211.635 363.977 211.893C363.361 212.145 362.857 212.513 362.466 212.997C362.075 213.474 361.863 214.051 361.83 214.727H359.443C359.483 213.66 359.804 212.725 360.408 211.923C361.011 211.115 361.8 210.485 362.774 210.034C363.755 209.583 364.832 209.358 366.006 209.358C367.265 209.358 368.346 209.613 369.247 210.124C370.149 210.627 370.841 211.294 371.325 212.122C371.809 212.951 372.051 213.846 372.051 214.807C372.051 215.954 371.75 216.931 371.146 217.74C370.55 218.549 369.738 219.109 368.71 219.42V219.58C369.996 219.792 371 220.339 371.723 221.22C372.446 222.095 372.807 223.179 372.807 224.472C372.807 225.579 372.505 226.573 371.902 227.455C371.305 228.33 370.49 229.019 369.456 229.523C368.422 230.027 367.245 230.278 365.926 230.278Z" fill="#353434"/>
<defs>
<filter id="filter0_d_102_5" x="0" y="0" width="638" height="440" filterUnits="userSpaceOnUse" color-interpolation-filters="sRGB">
<feFlood flood-opacity="0" result="BackgroundImageFix"/>
<feColorMatrix in="SourceAlpha" type="matrix" values="0 0 0 0 0 0 0 0 0 0 0 0 0 0 0 0 0 0 127 0" result="hardAlpha"/>
<feMorphology radius="10" operator="dilate" in="SourceAlpha" result="effect1_dropShadow_102_5"/>
<feOffset/>
<feComposite in2="hardAlpha" operator="out"/>
<feColorMatrix type="matrix" values="0 0 0 0 0.85098 0 0 0 0 0.85098 0 0 0 0 0.85098 0 0 0 0.25 0"/>
<feBlend mode="normal" in2="BackgroundImageFix" result="effect1_dropShadow_102_5"/>
<feBlend mode="normal" in="SourceGraphic" in2="effect1_dropShadow_102_5" result="shape"/>
</filter>
</defs>
</svg>
