<svg width="638" height="440" viewBox="0 0 638 440" fill="none" xmlns="http://www.w3.org/2000/svg">
<g filter="url(#filter0_d_102_5)">
<rect x="10" y="10" width="618" height="420" rx="20" fill="#D9D9D9"/>
</g>
<path d="M266.098 209.636V230H263.632V209.636H266.098ZM271.042 209.636H273.985L280.906 226.54H281.144L288.065 209.636H291.008V230H288.701V214.528H288.502L282.139 230H279.911L273.548 214.528H273.349V230H271.042V209.636ZM296.787 230H294.202L301.68 209.636H304.225L311.702 230H309.117L303.032 212.858H302.873L296.787 230ZM297.742 222.045H308.162V224.233H297.742V222.045ZM327.838 216C327.619 215.33 327.33 214.731 326.972 214.2C326.621 213.663 326.2 213.206 325.71 212.828C325.226 212.45 324.676 212.162 324.059 211.963C323.443 211.764 322.767 211.665 322.031 211.665C320.824 211.665 319.727 211.976 318.74 212.599C317.752 213.223 316.966 214.141 316.383 215.354C315.8 216.567 315.508 218.055 315.508 219.818C315.508 221.581 315.803 223.07 316.393 224.283C316.983 225.496 317.782 226.414 318.789 227.037C319.797 227.66 320.93 227.972 322.19 227.972C323.356 227.972 324.384 227.723 325.272 227.226C326.167 226.722 326.863 226.013 327.36 225.098C327.864 224.177 328.116 223.093 328.116 221.847L328.872 222.006H322.747V219.818H330.502V222.006C330.502 223.683 330.144 225.141 329.428 226.381C328.719 227.62 327.738 228.581 326.485 229.264C325.239 229.94 323.807 230.278 322.19 230.278C320.387 230.278 318.802 229.854 317.437 229.006C316.078 228.157 315.017 226.951 314.255 225.386C313.499 223.822 313.122 221.966 313.122 219.818C313.122 218.207 313.337 216.759 313.768 215.473C314.205 214.18 314.822 213.08 315.617 212.172C316.413 211.264 317.354 210.568 318.441 210.084C319.528 209.6 320.725 209.358 322.031 209.358C323.105 209.358 324.106 209.52 325.034 209.845C325.968 210.163 326.8 210.617 327.529 211.207C328.265 211.791 328.878 212.49 329.369 213.305C329.859 214.114 330.197 215.012 330.383 216H327.838ZM334.726 230V209.636H347.015V211.824H337.192V218.705H346.379V220.892H337.192V227.812H347.175V230H334.726ZM358.5 225.824V223.795L367.449 209.636H368.92V212.778H367.926L361.165 223.477V223.636H373.216V225.824H358.5ZM368.085 230V225.207V224.263V209.636H370.432V230H368.085Z" fill="#353434"/>
<defs>
<filter id="filter0_d_102_5" x="0" y="0" width="638" height="440" filterUnits="userSpaceOnUse" color-interpolation-filters="sRGB">
<feFlood flood-opacity="0" result="BackgroundImageFix"/>
<feColorMatrix in="SourceAlpha" type="matrix" values="0 0 0 0 0 0 0 0 0 0 0 0 0 0 0 0 0 0 127 0" result="hardAlpha"/>
<feMorphology radius="10" operator="dilate" in="SourceAlpha" result="effect1_dropShadow_102_5"/>
<feOffset/>
<feComposite in2="hardAlpha" operator="out"/>
<feColorMatrix type="matrix" values="0 0 0 0 0.85098 0 0 0 0 0.85098 0 0 0 0 0.85098 0 0 0 0.25 0"/>
<feBlend mode="normal" in2="BackgroundImageFix" result="effect1_dropShadow_102_5"/>
<feBlend mode="normal" in="SourceGraphic" in2="effect1_dropShadow_102_5" result="shape"/>
</filter>
</defs>
</svg>
