<svg width="638" height="440" viewBox="0 0 638 440" fill="none" xmlns="http://www.w3.org/2000/svg">
<g filter="url(#filter0_d_102_5)">
<rect x="10" y="10" width="618" height="420" rx="20" fill="#D9D9D9"/>
</g>
<path d="M267.063 209.636V230H264.597V209.636H267.063ZM272.007 209.636H274.95L281.871 226.54H282.109L289.03 209.636H291.973V230H289.666V214.528H289.467L283.104 230H280.876L274.513 214.528H274.314V230H272.007V209.636ZM297.752 230H295.167L302.644 209.636H305.19L312.667 230H310.082L303.997 212.858H303.838L297.752 230ZM298.707 222.045H309.127V224.233H298.707V222.045ZM328.802 216C328.584 215.33 328.295 214.731 327.937 214.2C327.586 213.663 327.165 213.206 326.675 212.828C326.191 212.45 325.64 212.162 325.024 211.963C324.407 211.764 323.731 211.665 322.996 211.665C321.789 211.665 320.692 211.976 319.704 212.599C318.717 213.223 317.931 214.141 317.348 215.354C316.765 216.567 316.473 218.055 316.473 219.818C316.473 221.581 316.768 223.07 317.358 224.283C317.948 225.496 318.747 226.414 319.754 227.037C320.762 227.66 321.895 227.972 323.155 227.972C324.321 227.972 325.349 227.723 326.237 227.226C327.132 226.722 327.828 226.013 328.325 225.098C328.829 224.177 329.081 223.093 329.081 221.847L329.836 222.006H323.711V219.818H331.467V222.006C331.467 223.683 331.109 225.141 330.393 226.381C329.684 227.62 328.703 228.581 327.45 229.264C326.204 229.94 324.772 230.278 323.155 230.278C321.352 230.278 319.767 229.854 318.402 229.006C317.043 228.157 315.982 226.951 315.22 225.386C314.464 223.822 314.086 221.966 314.086 219.818C314.086 218.207 314.302 216.759 314.733 215.473C315.17 214.18 315.787 213.08 316.582 212.172C317.378 211.264 318.319 210.568 319.406 210.084C320.493 209.6 321.69 209.358 322.996 209.358C324.069 209.358 325.07 209.52 325.998 209.845C326.933 210.163 327.765 210.617 328.494 211.207C329.23 211.791 329.843 212.49 330.334 213.305C330.824 214.114 331.162 215.012 331.348 216H328.802ZM335.691 230V209.636H347.98V211.824H338.156V218.705H347.344V220.892H338.156V227.812H348.139V230H335.691ZM366.306 230.278C365.139 230.278 364.088 230.046 363.154 229.582C362.219 229.118 361.47 228.482 360.906 227.673C360.343 226.865 360.035 225.943 359.982 224.909H362.368C362.461 225.83 362.878 226.593 363.621 227.196C364.37 227.793 365.265 228.091 366.306 228.091C367.141 228.091 367.883 227.895 368.533 227.504C369.189 227.113 369.703 226.576 370.074 225.893C370.452 225.204 370.641 224.425 370.641 223.557C370.641 222.669 370.445 221.876 370.054 221.18C369.67 220.478 369.139 219.924 368.463 219.52C367.787 219.116 367.015 218.91 366.146 218.903C365.523 218.897 364.884 218.993 364.227 219.192C363.571 219.384 363.031 219.633 362.607 219.938L360.3 219.659L361.533 209.636H372.112V211.824H363.601L362.885 217.83H363.004C363.422 217.498 363.946 217.223 364.575 217.004C365.205 216.786 365.861 216.676 366.544 216.676C367.79 216.676 368.901 216.974 369.875 217.571C370.856 218.161 371.625 218.97 372.182 219.997C372.745 221.025 373.027 222.198 373.027 223.517C373.027 224.816 372.735 225.976 372.152 226.997C371.575 228.011 370.78 228.813 369.766 229.403C368.752 229.987 367.598 230.278 366.306 230.278Z" fill="#353434"/>
<defs>
<filter id="filter0_d_102_5" x="0" y="0" width="638" height="440" filterUnits="userSpaceOnUse" color-interpolation-filters="sRGB">
<feFlood flood-opacity="0" result="BackgroundImageFix"/>
<feColorMatrix in="SourceAlpha" type="matrix" values="0 0 0 0 0 0 0 0 0 0 0 0 0 0 0 0 0 0 127 0" result="hardAlpha"/>
<feMorphology radius="10" operator="dilate" in="SourceAlpha" result="effect1_dropShadow_102_5"/>
<feOffset/>
<feComposite in2="hardAlpha" operator="out"/>
<feColorMatrix type="matrix" values="0 0 0 0 0.85098 0 0 0 0 0.85098 0 0 0 0 0.85098 0 0 0 0.25 0"/>
<feBlend mode="normal" in2="BackgroundImageFix" result="effect1_dropShadow_102_5"/>
<feBlend mode="normal" in="SourceGraphic" in2="effect1_dropShadow_102_5" result="shape"/>
</filter>
</defs>
</svg>
